<svg xmlns="http://www.w3.org/2000/svg" width="21.523" height="20" viewBox="0 0 21.523 20">
  <g id="Raggruppa_3691" data-name="Raggruppa 3691" transform="translate(108.078 150.987)">
    <path id="Tracciato_3847" data-name="Tracciato 3847" d="M-88.731-131.086h-17.117v-9.693l-.924.923-1.152-1.176c.361-.249.614-.7,1.154-.949.477-.223.8-.764,1.206-1.15,1.636-1.557,3.213-3.186,4.941-4.634,1.135-.951,2.148-2.024,3.316-3.083.273.27.5.51.743.735,1.264,1.169,2.532,2.334,3.867,3.563v-1.534h1.565v2.973L-86.691-141l-1.02,1.295-1.02-1.014Zm-15.548-1.577h13.929v-9.461c-1.984-1.885-3.96-3.773-5.952-5.643a9.009,9.009,0,0,0-1.071-.739c-2.346,2.119-4.716,4.164-6.906,6.423Z" fill="#59646b" stroke="#59646b" stroke-width="0.2"/>
    <path id="Tracciato_3848" data-name="Tracciato 3848" d="M-87.983-107.771h4.575v5.411c-1.481,0-3.006,0-4.575,0Zm3.053,3.86c.015-.777.024-1.553-.005-2.284h-1.54c.018.794-.026,1.544.03,2.284Z" transform="translate(-14.726 -31.812)" fill="#59646b" stroke="#59646b" stroke-width="0.2"/>
    <path id="Tracciato_3849" data-name="Tracciato 3849" d="M-64.227-107.775h4.573v5.325c.013-.014-.012.023-.047.046a.217.217,0,0,1-.111.041c-1.457,0-2.915,0-4.415,0Zm1.531,3.817h1.535c-.017-.793.024-1.543-.025-2.243H-62.7Z" transform="translate(-32.269 -31.809)" fill="#59646b" stroke="#59646b" stroke-width="0.2"/>
  </g>
</svg>
