<svg xmlns="http://www.w3.org/2000/svg" width="24" height="24" viewBox="0 0 24 24"><g transform="translate(3194 -2811)"><g transform="translate(-3194 2811)"><g transform="translate(-236 -188)"><path d="M10.62,17.71a2.181,2.181,0,0,1-1.24,0C6.48,16.72,0,12.59,0,5.59A5.574,5.574,0,0,1,5.56,0,5.515,5.515,0,0,1,10,2.24,5.547,5.547,0,0,1,20,5.59C20,12.59,13.52,16.72,10.62,17.71Z" transform="translate(238 191.1)" fill="none" stroke="#424e5b" stroke-linecap="round" stroke-linejoin="round" stroke-width="2"/><g transform="translate(236 188)" fill="none" opacity="0"><path d="M0,0H24V24H0Z" stroke="none"/><path d="M 2 2 L 2 22 L 22 22 L 22 2 L 2 2 M 0 0 L 24 0 L 24 24 L 0 24 L 0 0 Z" stroke="none" fill="#424e5b"/></g></g></g><path d="M.29,8.135A1,1,0,0,1-.177,6.25a12.52,12.52,0,0,0,3.611-3A9.981,9.981,0,0,0,5.1-.7,1,1,0,0,1,6.241-1.54a1,1,0,0,1,.84,1.135A11.888,11.888,0,0,1,5.035,4.448,14.393,14.393,0,0,1,.754,8.02,1,1,0,0,1,.29,8.135Z" transform="translate(-3181.5 2820.5)" fill="#157638"/></g></svg>