<svg width="25" height="22" viewBox="0 0 25 22" fill="none" xmlns="http://www.w3.org/2000/svg">
<g clip-path="url(#clip0_22_62)">
<path d="M24.11 11.5874H15.4485C15.2008 11.5874 15.0009 11.3121 15.0009 10.9737C15.0009 10.6353 15.2017 10.36 15.4485 10.36H24.11C24.3577 10.36 24.5576 10.6353 24.5576 10.9737C24.5576 11.3121 24.3577 11.5874 24.11 11.5874Z" fill="#365C76" stroke="#365C76" stroke-width="0.2"/>
<path d="M11.0987 21.5616C9.16075 21.5616 7.25948 21.0378 5.59951 20.0466C3.93954 19.0554 2.58372 17.6344 1.67795 15.9363C0.772178 14.2383 0.350755 12.3276 0.459031 10.4099C0.567308 8.49219 1.20118 6.64004 2.29245 5.05278C3.38371 3.46551 4.89104 2.20323 6.65222 1.40178C8.41341 0.600327 10.3618 0.290043 12.2876 0.50432C14.2135 0.718596 16.0439 1.44932 17.582 2.61786C19.12 3.78639 20.3074 5.3485 21.0164 7.13606C21.0513 7.22409 21.0683 7.31805 21.0665 7.41259C21.0647 7.50714 21.0442 7.6004 21.006 7.68707C20.9679 7.77374 20.9128 7.85211 20.8441 7.91771C20.7754 7.98331 20.6943 8.03485 20.6055 8.06939C20.5167 8.10393 20.4219 8.1208 20.3265 8.11902C20.2311 8.11725 20.137 8.09687 20.0496 8.05906C19.9621 8.02124 19.883 7.96672 19.8169 7.89861C19.7507 7.83051 19.6987 7.75015 19.6638 7.66213C18.8796 5.68573 17.424 4.0426 15.5481 3.01625C13.6722 1.98989 11.4936 1.64469 9.38831 2.04021C7.28302 2.43573 5.38305 3.54716 4.01623 5.18273C2.64941 6.81829 1.90148 8.87541 1.90148 10.9991C1.90148 13.1228 2.64941 15.18 4.01623 16.8155C5.38305 18.4511 7.28302 19.5625 9.38831 19.958C11.4936 20.3536 13.6722 20.0084 15.5481 18.982C17.424 17.9557 18.8796 16.3125 19.6638 14.3361C19.7342 14.1584 19.873 14.0156 20.0496 13.9392C20.2262 13.8628 20.4262 13.8591 20.6055 13.9289C20.7849 13.9986 20.929 14.1361 21.006 14.3112C21.0831 14.4862 21.0868 14.6844 21.0164 14.8622C20.24 16.8414 18.8767 18.5409 17.1062 19.7368C15.3358 20.9328 13.2413 21.569 11.0987 21.5616Z" fill="#365C76" stroke="#365C76" stroke-width="0.2"/>
</g>
<defs>
<clipPath id="clip0_22_62">
<rect width="25" height="22" fill="white"/>
</clipPath>
</defs>
</svg>
