<svg id="bagni" xmlns="http://www.w3.org/2000/svg" width="17.32" height="15" viewBox="0 0 17.32 15">
  <path id="Tracciato_76" data-name="Tracciato 76" d="M-634.005,258.5l.583-2.266c-.155-.392-.588-.526-.965-.954a3.543,3.543,0,0,1-.812-2.432,5.132,5.132,0,0,0-.235-1.574,1.024,1.024,0,0,0-.9-.7V249.1c-.015.017,0-.011.029-.03a.158.158,0,0,1,.084-.034c2.035,0,.078,0,2.18,0,0-1.3,0-2.574,0-3.845a1.527,1.527,0,0,1,1.7-1.678c.724,0,1.447,0,2.171,0a1.509,1.509,0,0,1,1.659,1.621c0,.226,0,.452,0,.712h.741v1.583h-3.067V245.9l.705-.04v-.751h-2.3v3.86c-.013-.014,4,.014,4.024.032s-3.937.033-3.908.033c3.088,0,10.168,0,13.29,0v1.492c-.568.228-.77.5-.953,1.318a8.032,8.032,0,0,1-.369,2.212,5.139,5.139,0,0,1-.935,1.679,4.365,4.365,0,0,1-.67.466l.6,2.3c-.46,0-.88-.009-1.3,0a.456.456,0,0,1-.484-.378c-.1-.387-.16-.786-.237-1.187h-8.591a1.589,1.589,0,0,0-.243.715c-.1.442.032.664-.252.755a3.493,3.493,0,0,1-.85.089C-633.521,258.511-633.745,258.5-634.005,258.5Zm-.005-7.877a1.494,1.494,0,0,1,.2.4c.078.727.124,1.457.211,2.183a1.754,1.754,0,0,0,.239.878,2.774,2.774,0,0,0,2.229,1.275c2.2-.038,4.407-.032,6.61,0a2.66,2.66,0,0,0,2.2-.9,2.38,2.38,0,0,0,.56-1.349c.092-.725.146-1.192.293-1.9a3.158,3.158,0,0,1,.143-.582Z" transform="translate(636.339 -243.505)" fill="#fff"/>
</svg>
