<svg xmlns="http://www.w3.org/2000/svg" width="15.21" height="15.21" viewBox="0 0 15.21 15.21">
  <g id="rooms" transform="translate(0.25 0.25)">
    <path id="Tracciato_8040" data-name="Tracciato 8040" d="M4.3.858A3.439,3.439,0,0,0,.86,4.29v6.1A3.439,3.439,0,0,0,4.3,13.824h6.114a3.439,3.439,0,0,0,3.438-3.432V4.29A3.439,3.439,0,0,0,10.412.858H4.3M4.3,0h6.114a4.294,4.294,0,0,1,4.3,4.29v6.1a4.294,4.294,0,0,1-4.3,4.29H4.3A4.294,4.294,0,0,1,0,10.392V4.29A4.294,4.294,0,0,1,4.3,0Z" fill="#69c4d9" stroke="#69c4d9" stroke-width="0.5"/>
    <path id="Tracciato_8041" data-name="Tracciato 8041" d="M-.17,5.245A.429.429,0,0,1-.6,4.816V-.171A.429.429,0,0,1-.17-.6a.429.429,0,0,1,.43.429V4.816a.429.429,0,0,1-.43.429Z" transform="translate(7.526 9.465)" fill="#69c4d9" stroke="#69c4d9" stroke-width="0.5"/>
    <path id="Tracciato_8042" data-name="Tracciato 8042" d="M4.644.258H-.17A.429.429,0,0,1-.6-.171.429.429,0,0,1-.17-.6H4.644a.429.429,0,0,1,.43.429.429.429,0,0,1-.43.429Z" transform="translate(0.855 8.046)" fill="#69c4d9" stroke="#69c4d9" stroke-width="0.5"/>
    <path id="Tracciato_8043" data-name="Tracciato 8043" d="M-.17,5.6A.429.429,0,0,1-.6,5.167V-.171A.429.429,0,0,1-.17-.6a.429.429,0,0,1,.43.429V5.167A.429.429,0,0,1-.17,5.6Z" transform="translate(5.118 0.855)" fill="#69c4d9" stroke="#69c4d9" stroke-width="0.5"/>
    <path id="Tracciato_8044" data-name="Tracciato 8044" d="M4.2.258H-.17A.429.429,0,0,1-.6-.171.429.429,0,0,1-.17-.6H4.2a.429.429,0,0,1,.43.429A.429.429,0,0,1,4.2.258Z" transform="translate(9.827 6.193)" fill="#69c4d9" stroke="#69c4d9" stroke-width="0.5"/>
    <path id="Tracciato_8045" data-name="Tracciato 8045" d="M-.17,3.461A.429.429,0,0,1-.6,3.032v-3.2A.429.429,0,0,1-.17-.6a.429.429,0,0,1,.43.429v3.2a.429.429,0,0,1-.43.429Z" transform="translate(9.665 0.855)" fill="#69c4d9" stroke="#69c4d9" stroke-width="0.5"/>
  </g>
</svg>
