<svg xmlns="http://www.w3.org/2000/svg" width="24" height="24" viewBox="0 0 24 24">
  <g id="person_outline-24px" transform="translate(-7 2)">
    <path id="Tracciato_11" data-name="Tracciato 11" d="M16,6.85A3.15,3.15,0,1,1,12.85,10,3.15,3.15,0,0,1,16,6.85m0,13.5c4.455,0,9.15,2.19,9.15,3.15v1.65H6.85V23.5c0-.96,4.7-3.15,9.15-3.15M16,4a6,6,0,1,0,0,12,6.119,6.119,0,0,0,5.291-3.167A5.682,5.682,0,0,0,22,10,6,6,0,0,0,16,4Zm0,13.5c-4.005,0-12,2.01-12,6V28H28V23.5C28,19.51,20,17.5,16,17.5Z" transform="translate(3 -6)" fill="#424e5b"/>
    <g id="Raggruppa_1940" data-name="Raggruppa 1940" transform="translate(-371.577 -319.352)">
      <path id="Path_11" data-name="Path 11" d="M390.577,333.7c4.455,0,9.15,2.19,9.15,3.15v1.65h-18.3v-1.65c0-.96,4.7-3.15,9.15-3.15m0-2.85c-4.005,0-12,2.01-12,6v4.5h24v-4.5C402.577,332.862,394.577,330.852,390.577,330.852Z" fill="#158140"/>
      <path id="Tracciato_1802" data-name="Tracciato 1802" d="M390.112,315.882a6,6,0,1,0,0,12,6.119,6.119,0,0,0,5.291-3.167,5.669,5.669,0,0,0,.709-2.833A6,6,0,0,0,390.112,315.882Zm0,9.15a3.15,3.15,0,1,1,3.15-3.15A3.15,3.15,0,0,1,390.112,325.032Z" transform="translate(0.465 1.47)" fill="#424e5b"/>
    </g>
  </g>
</svg>
