<svg xmlns="http://www.w3.org/2000/svg" width="22.269" height="19.979" viewBox="0 0 22.269 19.979">
  <g id="Raggruppa_3689" data-name="Raggruppa 3689" transform="translate(-20.992 -24.99)">
    <path id="Tracciato_3839" data-name="Tracciato 3839" d="M43.253,44.969H20.995V39.387c0-3.849-.006-7.7,0-11.546,0-2.082.768-2.841,2.857-2.847q4.8-.013,9.6,0c2.451,0,3.112.668,3.127,3.139,0,.369,0,.738,0,1.316,1.463,0,2.882-.03,4.3.008a2.166,2.166,0,0,1,2.357,2.207C43.281,36.061,43.253,40.458,43.253,44.969Zm-9-2.226V27.331H23.3V42.743Zm6.685,0V31.774H36.648v2.06l2.065.133v2.1l-2.062.124v2.088l2.058.144v2.09l-2.053.14v2.09Z" fill="#59646b"/>
    <path id="Tracciato_3840" data-name="Tracciato 3840" d="M37.241,41.2h2.068v2.092H37.241Z" transform="translate(-11.726 -11.697)" fill="#59646b"/>
    <path id="Tracciato_3841" data-name="Tracciato 3841" d="M55.4,43.377H53.33V41.285H55.4Z" transform="translate(-23.337 -11.76)" fill="#59646b"/>
    <path id="Tracciato_3842" data-name="Tracciato 3842" d="M39.377,57.241v2.068H37.285V57.241Z" transform="translate(-11.758 -23.275)" fill="#59646b"/>
    <path id="Tracciato_3843" data-name="Tracciato 3843" d="M53.33,57.228H55.4v2.059H53.33Z" transform="translate(-23.337 -23.266)" fill="#59646b"/>
    <path id="Tracciato_3844" data-name="Tracciato 3844" d="M37.33,73.228H39.4v2.059H37.33Z" transform="translate(-11.791 -34.813)" fill="#59646b"/>
    <path id="Tracciato_3845" data-name="Tracciato 3845" d="M55.309,75.433H53.242V73.374h2.067Z" transform="translate(-23.274 -34.918)" fill="#59646b"/>
  </g>
</svg>
