<svg xmlns="http://www.w3.org/2000/svg" width="35.693" height="25.337" viewBox="0 0 35.693 25.337">
  <g id="Raggruppa_1793" data-name="Raggruppa 1793" transform="translate(-9.502 0)">
    <g id="Raggruppa_1593" data-name="Raggruppa 1593" transform="translate(-1)">
      <path id="Tracciato_807" data-name="Tracciato 807" d="M23.695,5.587V23.695H5.587V5.587H23.695M25.118,3H4.164A1.159,1.159,0,0,0,3,4.164V25.118a1.25,1.25,0,0,0,1.164,1.164H25.118a1.372,1.372,0,0,0,1.164-1.164V4.164A1.25,1.25,0,0,0,25.118,3ZM13.347,8.174h7.761v2.587H13.347Zm0,5.174h7.761v2.587H13.347Zm0,5.174h7.761v2.587H13.347ZM8.174,8.174h2.587v2.587H8.174Zm0,5.174h2.587v2.587H8.174Zm0,5.174h2.587v2.587H8.174Z" transform="translate(7.502 -3)" fill="#424e5b"/>
      <g id="Tracciato_811" data-name="Tracciato 811" transform="translate(-160.261 -646.968)" fill="#158140">
        <path d="M 201.5646667480469 670.5786743164062 L 200.8406066894531 670.116455078125 C 200.2231140136719 669.7222900390625 199.7510833740234 669.2337646484375 199.2946014404297 668.7612915039062 C 199.2098236083984 668.6735229492188 199.1263275146484 668.5870971679688 199.0433654785156 668.5028686523438 C 197.8900604248047 668.9796752929688 196.7781829833984 669.212890625 195.6685028076172 669.2129516601562 C 194.8017120361328 669.2129516601562 193.9377746582031 669.0645141601562 193.1006774902344 668.771728515625 C 191.3269653320312 668.1515502929688 189.9400787353516 667.0519409179688 188.9787292480469 665.5034790039062 C 186.9862670898438 662.2947998046875 187.4901580810547 658.0836791992188 190.1769714355469 655.4905395507812 C 191.6554565429688 654.0633544921875 193.621826171875 653.27734375 195.7137756347656 653.27734375 C 197.3326721191406 653.27734375 198.8912200927734 653.7527465820312 200.2209320068359 654.6522216796875 C 201.9187469482422 655.8010864257812 203.0245361328125 657.42529296875 203.4189453125 659.349365234375 C 203.7471160888672 660.9502563476562 203.5876312255859 662.6966552734375 202.9453735351562 664.5523681640625 C 203.3945159912109 665.035888671875 203.8303375244141 665.4859619140625 204.3206787109375 665.8314208984375 L 204.9567108154297 666.279541015625 L 204.9567108154297 667.0576171875 L 204.9567108154297 667.3806762695312 L 204.9567108154297 668.413330078125 L 203.9920349121094 668.7819213867188 C 203.9303741455078 668.8135375976562 203.7590484619141 668.9978637695312 203.6456909179688 669.119873046875 C 203.3498382568359 669.4381713867188 202.9446258544922 669.8741455078125 202.3297271728516 670.1881103515625 L 201.5646667480469 670.5786743164062 Z M 195.7132873535156 658.8787841796875 C 194.4136352539062 658.8787841796875 193.4013977050781 659.85693359375 193.3587646484375 661.1539916992188 C 193.3371429443359 661.8079223632812 193.5641479492188 662.4207763671875 193.9979248046875 662.8800048828125 C 194.42626953125 663.3334350585938 195.0146331787109 663.591552734375 195.6546478271484 663.6068115234375 C 195.6747589111328 663.6072998046875 195.6949462890625 663.6075439453125 195.7150421142578 663.6075439453125 C 197.0194549560547 663.6075439453125 198.0550994873047 662.5834350585938 198.0727844238281 661.2760620117188 C 198.0816345214844 660.6251831054688 197.8445892333984 660.0205688476562 197.4053192138672 659.5735473632812 C 196.9676055908203 659.1281127929688 196.3702850341797 658.88134765625 195.723388671875 658.8788452148438 L 195.7132873535156 658.8787841796875 Z" stroke="none"/>
        <path d="M 201.6476898193359 668.8521118164062 C 202.4308929443359 668.4522705078125 202.7288360595703 667.6587524414062 203.4567108154297 667.3806762695312 L 203.4567108154297 667.0576171875 C 202.5813446044922 666.4408569335938 201.9108123779297 665.623291015625 201.2090301513672 664.8895263671875 C 202.842529296875 661.0316162109375 202.1596374511719 657.7752685546875 199.3805084228516 655.8946533203125 C 198.2718048095703 655.1447143554688 196.9890441894531 654.77734375 195.7137756347656 654.77734375 C 194.0733337402344 654.77734375 192.4454803466797 655.3855590820312 191.2186584472656 656.56982421875 C 189.0338897705078 658.678466796875 188.6284484863281 662.095947265625 190.2530975341797 664.7122802734375 C 191.0500183105469 665.9959106445312 192.1822967529297 666.861572265625 193.5959320068359 667.3558349609375 C 194.2991485595703 667.601806640625 194.9896087646484 667.7129516601562 195.6684265136719 667.712890625 C 196.9238433837891 667.712890625 198.1387481689453 667.3325805664062 199.3160552978516 666.7216186523438 C 200.1910552978516 667.409912109375 200.8019561767578 668.312255859375 201.6476898193359 668.8521118164062 M 195.7132873535156 657.3787841796875 C 195.7185668945312 657.3787841796875 195.7239990234375 657.3788452148438 195.7292785644531 657.3788452148438 C 197.9033355712891 657.3873901367188 199.6022644042969 659.119140625 199.5726470947266 661.29638671875 C 199.5437622070312 663.431640625 197.8369445800781 665.1075439453125 195.7150268554688 665.1075439453125 C 195.6830902099609 665.1075439453125 195.6510162353516 665.1071166992188 195.6188812255859 665.1063842773438 C 193.4539794921875 665.0547485351562 191.7876129150391 663.2815551757812 191.8595733642578 661.1046752929688 C 191.9287414550781 659.0008544921875 193.6085052490234 657.3787841796875 195.7132873535156 657.3787841796875 M 201.4816436767578 672.3052368164062 L 200.0335388183594 671.380859375 C 199.4809875488281 671.0281372070312 199.0364990234375 670.6292724609375 198.6468048095703 670.2429809570312 C 197.6466369628906 670.5579833984375 196.6605834960938 670.712890625 195.6685791015625 670.7129516601562 C 194.6327209472656 670.7129516601562 193.6021423339844 670.5361938476562 192.6054382324219 670.1876220703125 C 190.5001373291016 669.4515380859375 188.8510589599609 668.1416625976562 187.704345703125 666.2946166992188 C 186.5613403320312 664.4539794921875 186.0725708007812 662.2529296875 186.3282318115234 660.0973510742188 C 186.5853271484375 657.9295043945312 187.5822296142578 655.91015625 189.1352844238281 654.4111938476562 C 190.8948059082031 652.7127685546875 193.2311553955078 651.77734375 195.7137756347656 651.77734375 C 197.6333770751953 651.77734375 199.4825439453125 652.341796875 201.0613555908203 653.4097290039062 C 203.0904846191406 654.7828369140625 204.4136962890625 656.7324829101562 204.8883972167969 659.0481567382812 C 205.2170104980469 660.6512451171875 205.133544921875 662.35986328125 204.6415710449219 664.14697265625 C 204.8248443603516 664.3226928710938 205.0054168701172 664.4789428710938 205.1846313476562 664.605224609375 L 206.4567108154297 665.5015258789062 L 206.4567108154297 667.0576171875 L 206.4567108154297 667.3806762695312 L 206.4567108154297 669.446044921875 L 204.8034515380859 670.07763671875 C 204.7830963134766 670.0994262695312 204.7627410888672 670.121337890625 204.7444152832031 670.1410522460938 C 204.3933715820312 670.5187377929688 203.8628540039062 671.0895385742188 203.0117645263672 671.5240478515625 L 201.4816436767578 672.3052368164062 Z M 195.7132873535156 660.3787841796875 C 195.2256469726562 660.3787841796875 194.8739166259766 660.7178344726562 194.8579559326172 661.2032470703125 C 194.8473052978516 661.5250244140625 194.9773559570312 661.7324829101562 195.0883331298828 661.8499145507812 C 195.1954345703125 661.9633178710938 195.3868408203125 662.0999755859375 195.6904144287109 662.1072387695312 C 195.6982574462891 662.107421875 195.7066497802734 662.1075439453125 195.7150268554688 662.1075439453125 C 196.1975555419922 662.1075439453125 196.5663452148438 661.7413330078125 196.5729217529297 661.2557983398438 C 196.5772399902344 660.9384765625 196.4461364746094 660.737548828125 196.3353881835938 660.6248168945312 C 196.2257690429688 660.5133056640625 196.0295867919922 660.3800659179688 195.7174835205078 660.3788452148438 L 195.7132873535156 660.3787841796875 Z" stroke="none" fill="#f5f7f5"/>
      </g>
    </g>
    <circle id="Ellisse_15" data-name="Ellisse 15" cx="4.5" cy="4.5" r="4.5" transform="translate(30 9.809)" fill="#f5f7f5"/>
  </g>
</svg>
