<svg xmlns="http://www.w3.org/2000/svg" width="15" height="15" viewBox="0 0 15 15">
  <g id="mq" transform="translate(-0.278 -0.107)">
    <path id="Tracciato_75" data-name="Tracciato 75" d="M-536.889,158.148a1.843,1.843,0,0,1-1.4-.618q-1.834-1.735-3.57-3.572a1.752,1.752,0,0,1-.354-1.76,2.035,2.035,0,0,1,.5-.92c2.464-2.43,4.9-4.887,7.345-7.338a2.177,2.177,0,0,1,1.825-.774,1.85,1.85,0,0,1,1.186.523c1.083,1.121,2.2,2.206,3.294,3.319a2.02,2.02,0,0,1,.554,2.42,1.542,1.542,0,0,1-.263.45q-3.89,3.914-7.794,7.815A2.337,2.337,0,0,1-536.889,158.148Zm.333-1.522,7.738-7.753v-.557l-3.616-3.623a.784.784,0,0,0-.916.274,10.066,10.066,0,0,1-.864.8l2.432,2.437c-.147.119-.372.281-.574.469-.462.43-.51.436-.971-.012-.291-.283-.568-.579-.862-.859a8.77,8.77,0,0,0-1.029-.97,8.238,8.238,0,0,0-1.117,1.251l1.12,1.1-1.171,1.172-1.109-1.114-.992.994,2.171,2.427-.572.543c-.389.368-.5.37-.9-.024-.615-.608-1.223-1.223-1.779-1.78-.133,0-.177-.013-.193,0-.245.24-.49.481-.729.727-.428.443-.433.719,0,1.157,1.01,1.02,2.039,2.021,3.032,3.057A.871.871,0,0,0-536.556,156.626Z" transform="translate(542.589 -143.046)" fill="#fff"/>
  </g>
</svg>
