<svg xmlns="http://www.w3.org/2000/svg" xmlns:xlink="http://www.w3.org/1999/xlink" width="2009.012" height="366.219" viewBox="0 0 2009.012 366.219"><defs><linearGradient id="a" x1="0.069" y1="0.92" x2="0.789" y2="-0.091" gradientUnits="objectBoundingBox"><stop offset="0" stop-color="#87bc57"/><stop offset="0.07" stop-color="#81b955"/><stop offset="0.156" stop-color="#72ae4f"/><stop offset="0.25" stop-color="#599b46"/><stop offset="0.349" stop-color="#378238"/><stop offset="0.453" stop-color="#0b6227"/><stop offset="0.475" stop-color="#005a23"/><stop offset="0.545" stop-color="#096f26"/><stop offset="0.656" stop-color="#158b2a"/><stop offset="0.754" stop-color="#1c9c2d"/><stop offset="0.827" stop-color="#1fa22e"/></linearGradient></defs><g transform="translate(-72.645 -100.632)"><path d="M402.36,438.4l-.27-32.07c9.31,0,12.52.3,12.52.3v41.95a16.862,16.862,0,0,1-16.86,16.86H102.85c-9.31,0-16.86-6.43-16.86-12.82l42.42.68s22.91-.64,32.22-.64c0,0,219.42.64,225,.64C397.77,453.31,402.36,438.4,402.36,438.4Z" fill="#007e31"/><path d="M123.07,121.695H1397.01a18.333,18.333,0,0,1,7.083,1.419,18.643,18.643,0,0,1,5.856,3.865,18.169,18.169,0,0,1,4,5.742,17.44,17.44,0,0,1,1.481,7.05v252.6a22.819,22.819,0,0,1-.84,6.5,12.584,12.584,0,0,1-2.7,4.936,11.489,11.489,0,0,1-4.666,3.044,19.106,19.106,0,0,1-6.437.99c-33.426,0-152.274-.043-302.741-.1-234.211-.085-554.973-.2-695.949-.2h-1.215V406.33c0-.565.445-230.282.45-232.6v-.055l.005-.055c.823-8.815.134-14.761-2.165-18.712-2.1-3.61-5.682-5.8-11.606-7.087-5.928-.18-279.346-.639-282.121-.643l-1.376,0L105,139.7a18.053,18.053,0,0,1,18.065-18.007Zm1277.71,283.72a16.7,16.7,0,0,0,5.615-.847,8.964,8.964,0,0,0,3.694-2.4,10.182,10.182,0,0,0,2.168-3.995,20.416,20.416,0,0,0,.738-5.807V139.77a15.335,15.335,0,0,0-4.741-11.05,16.221,16.221,0,0,0-5.1-3.363,15.913,15.913,0,0,0-6.148-1.232H123.07a15.641,15.641,0,0,0-15.635,15.655v.076l-.009.076-.608,4.815c10.2.017,75.167.128,139.453.255,40.913.081,73.547.154,97,.215,13.923.036,24.719.069,32.09.1,12.346.048,12.427.065,12.62.107a26.037,26.037,0,0,1,7.923,2.895,14.782,14.782,0,0,1,5.365,5.365,21.374,21.374,0,0,1,2.551,8.338,56.322,56.322,0,0,1-.061,11.768c-.009,4.5-.414,213.461-.448,231.326,141.6,0,461.193.117,694.732.2C1248.506,405.371,1367.355,405.415,1400.78,405.415Z" fill="#007e31"/><path d="M447.04,243.74c-8.13-5.43-10.8-11.45-14.35-20.56-4.1-10.5-5.05-17.63-3.09-28.72,1.6-9.06.08-21.45,9.29-21.68l90.32-2.25c12.87-.32,16.6,13.52,19.7,26.47,3.09,11.54.95,15.95-2.25,25.34-4.85,14.23-19.8,43.37-25.04,29.29-1.65-4.43-1.05-7.41-.56-12.11.6-5.78,3.12-8.61,3.94-14.36.74-5.22,2.34-8.55.56-13.52-2.05-5.71-5.71-8.75-11.54-10.42-2.86-.82-5.37-2.54-7.6-.56-1.5,1.33-1.69,1.97-.84,5.07,2.25,13.52,2.56,21.6,3.1,35.48.94,24.42-4.17,38.08-4.22,62.51-.03,15.06-.02,23.59,1.41,38.58.97,10.14,2.81,16.33,3.38,25.9,0,1.98.96,5.95-1.41,5.92l-38.83-.57c-8.51-.12-7.6-11.82-8.16-20.27-1.41-17.74,3.96-29.15,7.6-47.6,3.66-18.56,8.17-28.56,10.69-47.31,1.05-7.76,1.8-12.16,1.97-19.99.18-8.57,1.13-13.69-1.13-21.96-.94-3.45-.17-6.32-2.81-8.73a8.944,8.944,0,0,0-4.22-2.25c-2.88-.81-4.92-.22-7.6,1.13-3.48,1.75-5.16,3.94-6.47,7.6-1.68,4.71.54,7.88,1.97,12.67,1.95,6.54,7.94,8.66,8.16,15.49.1,3,.34,4.99-1.13,7.6-4.18,7.39-13.8-1.48-20.84-6.19Z" fill="#007e31"/><path d="M592.97,195.87c-2.72-.36-4.6-1.27-7.03,0-3.47,1.82-2.32,5.73-3.09,9.57-1.42,7-.28,9.58,0,18.3.56,6.19.12,8.51,3.94,10.98,3.41,2.2,6.41.67,10.41,0,7.7-1.29,11.54-5.07,17.73-9.29,5.91-3.66,5.12-4.77,4.5-8.45-.29-1.69-1.11-2.45-1.97-3.94-3.6-6.26-6.66-9.68-12.94-13.23a27.833,27.833,0,0,0-11.55-3.94Zm51.21,87.58c3.72,7.02,1.72,12.34,1.97,20.28.47,14.88.04,23.53-3.38,38.02-2.37,10.07-2.25,14.92-8.72,25.06-2.53,3.66-6.06,6.29-10.97,6.2l-30.11-.56c-5.6-.1-8.5-2.8-12.94-6.2-6.75-5.16-7.93-10.75-11.82-18.3-4.88-9.49-6.9-15.3-9.57-25.63-4.63-17.93-3.5-28.8-3.94-47.31-.64-26.73.56-39.42,4.22-68.43,1.97-13.52,7.04-36.04,24.48-38.3a105.076,105.076,0,0,1,14.07-1.69c11.49-.92,18.32-2.6,29.55,0,4.97,1.15,8.44,1.69,12.38,4.22,4.78,3.66,7.03,7.32,9,13.24a32.5,32.5,0,0,1,1.69,11.83c-.28,12.67-2.53,22.53-10.41,30.69-2.25,2.25-32.64,13.8-41.36,24.22-1.97,1.69-6.38,2.64-6.75,6.19-.22,2.04-.23,3.83,1.41,5.07,1.15.87,2.22.7,3.66.56,2.82-.27,3.57-2.63,5.91-4.22,11.09-7.54,18.16-10.52,30.11-16.61,2.71-1.38,4.03-2.91,7.03-3.38,2.06-.32,3.77-1.37,5.35,0,1.05.91.85,2.02,1.13,3.38.9,4.41,1.07,8.56-2.53,11.26-1.67,1.25-3.94.84-5.07,1.69a227.913,227.913,0,0,0-28.98,17.74c-4.33,3-7.33,4.08-10.97,7.88-2.44,2.56-3.93,4.08-5.35,7.32-1.22,2.78-1.31,4.59-1.69,7.6-.77,6.13.1,9.74,1.41,15.77,1.12,5.2,1.47,8.41,4.22,12.96,1.54,2.54,2.35,4.22,4.78,5.91a10.784,10.784,0,0,0,7.03,2.25c3.85-.04,6.01-1.35,9.29-3.38a17.992,17.992,0,0,0,6.19-5.63c3.24-4.62,2.79-8.46,3.38-14.08.49-4.7-.07-7.39,0-12.11a76.378,76.378,0,0,1,.28-9.57c.64-5.11-2.4-11.48,2.53-12.95a8.869,8.869,0,0,1,6.75.56c3.87,1.65,4.76,4.72,6.74,8.45Z" fill="#007e31" fill-rule="evenodd"/><path d="M736.76,269.93c2.23.92,3.7,1.33,5.35,3.1,2.13,2.29,1.67,4.6,2.53,7.6,2.28,7.92.39,12.88.28,21.12-.17,13.56.13,21.41-2.81,34.64-2.05,9.22-2.89,14.74-7.32,23.09-2.51,4.73-3.43,8.28-7.88,11.26-2.88,1.94-5.05,2.08-8.44,2.82a35.22,35.22,0,0,1-12.66.57c-8.26-.81-13.55-2.07-19.98-7.32-5.36-4.37-7.14-8.26-10.41-14.36-6.73-12.56-6-21.5-8.72-35.48-3.22-16.54-4.69-26-5.91-42.81a246.739,246.739,0,0,1-.28-34.07c.65-14.11-1.1-22.74,3.66-36.04,4.85-13.56,5.91-27.31,20.54-30.69,7.6-1.69,13.17-2.16,21.67-2.81,9.08-.7,14.46-1.98,23.35,0,6.03,1.34,10.04,1.55,14.92,5.35,7.69,6.01,9.23,13.61,9.01,23.37-.21,9.16-3.1,15.49-9.01,21.68-9.57,9.01-14.03,14.79-24.76,21.96-7.39,4.94-19.7,16.61-19.98,10.98,0-1.41-1.23-2.51-1.69-4.22-1.03-3.82-1.19-6.37,0-10.14,1.5-4.76,5.03-5.97,8.16-9.86,2.94-3.64,5.26-5.23,7.6-9.29,1.72-2.99,3.26-4.72,3.38-8.17.13-3.96-1.02-6.4-3.38-9.57-5.19-6.99-15.76-8.17-21.66-5.35-3.94,1.69-5.19,9.15-7.32,15.49-3.11,9.28-3.08,15.03-3.94,24.78-1.26,14.22-2.31,22.62.56,36.61,2.48,12.09,4.26,19.4,11.25,29.57,4.97,7.23,6.99,16,15.76,16.06a14.913,14.913,0,0,0,6.76-1.41,13.341,13.341,0,0,0,6.47-4.79c3.28-4.44,2.42-8.33,3.1-13.8.72-5.88,1.24-9.41,0-15.2-.53-2.48-1.84-3.66-1.97-6.2-.19-3.82-.13-7.24,3.1-9.29,3.5-2.27,6.8-.78,10.67.82Z" fill="#007e31"/><path d="M768.16,171.93c3.94-1.95,6.88-.29,11.26,0,5.31.35,8.87-.66,13.5,1.97,6.17,3.5,7.09,8.83,9.57,15.49,2.64,7.07,1.4,11.74,2.82,19.15,1.93,10.05,1.86,16.12,5.63,25.63,2.72,6.85,3.87,11.33,9.01,16.61,3.69,3.8,6.01,6.88,11.26,7.6,3.84.53,6.85,1.05,9.84-1.41,4.59-3.76,1.43-9.34.56-15.21-.98-6.58-3.35-9.9-6.47-15.77-3.45-6.48-6.12-9.75-10.69-15.49-3.78-4.74-6.19-8.17-10.41-11.55-6.76-5.35-5.28-6.98-3.94-11.55,1.12-3.81,3.93-4.82,6.75-7.6,3.72-3.66,5.29-6.8,10.13-8.73,6.74-2.68,12.4-2.97,18.57.84,7.23,4.47,6.72,11.72,8.72,19.99,2.3,9.51.9,15.28.85,25.06l-.85,151.79c-.02,3.07-3.94,2.53-7.31,2.81-12.1.85-9.01-1.12-20.54,0-3.94,0-6.47-4.5-6.47-8.73,0-6.48.56-11.68.57-19.15,0-16.57-1.2-26.01-4.5-42.25-2.34-11.46-2.93-18.28-7.6-29-2.8-6.44-3.29-11.31-8.72-15.77-3.34-2.74-9.89-9.41-9.85-5.07l1.13,117.15c.02,2.47-1.97,2.81-5.63,2.81-8.16,0-10.97-.84-21.1.85-2.82.56-2.25-5.07-1.97-7.6,1.4-15.21,2.74-22.13,3.94-36.33,1.47-17.32,2.54-27.12,2.53-44.5s-1.21-27.16-2.53-44.49c-.97-12.74-1.72-19.91-2.54-32.67-.7-10.97-1.69-15.77-1.4-28.16-.03-3.34,2.75-5.16,5.88-6.72Z" fill="#007e31"/><path d="M914.48,203.47c-7.88-1.41-9.1,3.11-13.23,7.32-5.49,5.61-4.96,11.29-7.03,18.87-1.48,5.38-2.47,8.5-2.53,14.08-.06,5.09-.33,8.27,1.69,12.95,2.67,6.21,8.7,6.44,12.38,12.11,4.16,6.41,3.09,11.6,6.19,18.58,5.86,13.23,8.44,40.55,20.82,30.7,2.53-2.53,2.94-6.23,4.22-10.42,1.68-5.46,1.76-8.76,2.82-14.36a179.689,179.689,0,0,0,3.66-29.85c.27-6.36.6-9.99,0-16.33-.63-6.54-.98-10.3-2.82-16.62-1.65-5.68-2.21-9.25-5.63-14.08a28.007,28.007,0,0,0-7.6-7.89c-4.42-3.12-7.87-4.21-12.94-5.06ZM897.04,172.5c17.44,0,27.01-2.53,44.18-.56,4.78.56,11.82,6.2,13.5,10.42,8.72,21.12,5.95,26.46,7.88,43.65,2.19,19.55,2.83,30.77,1.69,50.41-.96,16.71-2.57,26.11-5.91,42.52-1.68,8.25-1.99,13.09-4.5,21.12-3.2,10.23-4.53,16.72-11.25,25.06-2.68,3.32-4.22,7.88-7.6,7.88-19.7,1.97-16.32,1.13-26.45.56-4.22,0-6.9-2.64-10.41-5.63-3.41-2.9-4.78-5.35-6.76-9.29-7.59-15.77-10.42-27.39-14.35-45.62-3.64-16.89-4.56-26.69-5.63-43.93-1.06-17.1-1.7-26.91.28-43.93.96-8.29,1.37-13.02,3.37-21.12,1.99-7.99,2.85-12.75,6.76-19.99,2.03-3.78,2.35-6.89,5.91-9.29,3.09-2.09,5.63-2.26,9.29-2.26Z" fill="#007e31" fill-rule="evenodd"/><path d="M1054.05,270.49c2.2.84,3.73,1.1,5.35,2.82,2.18,2.33,1.47,4.78,2.25,7.88,2.01,7.99.86,12.88.84,21.12-.03,13.46-.13,21.24-3.09,34.36-2.08,9.22-2.92,14.73-7.32,23.09-2.54,4.83-3.39,8.47-7.88,11.55-2.78,1.9-4.87,2.11-8.16,2.82-4.94,1.06-7.93.89-12.94.28-8.13-.99-13.24-2.28-19.7-7.32-5.48-4.28-7.57-8.01-10.97-14.08-6.99-12.48-5.53-21.7-8.16-35.76-3.1-16.57-4.69-25.99-5.91-42.81a246.739,246.739,0,0,1-.28-34.07c.65-14.11-1.04-22.72,3.66-36.04,4.78-13.52,5.91-27.31,20.26-30.69,7.6-1.69,13.34-2.17,21.95-2.82,9.19-.69,14.67-2.16,23.63,0,5.71,1.37,9.46,1.71,14.07,5.35,7.77,6.14,9.62,13.75,9.29,23.65-.3,9.1-3.09,15.21-9.29,21.4-8.72,9.29-13.53,15.14-24.2,22.25-7.43,4.96-19.69,16.62-20.26,10.7,0-1.13-1.02-2.53-1.41-4.22-.87-3.75-1.09-6.17,0-9.86,1.44-4.87,4.88-6.27,8.16-10.14,3.02-3.56,5.82-4.82,7.88-9.01,1.47-2.99,2.47-4.83,2.53-8.17.07-3.96-1.01-6.4-3.37-9.57-5.15-6.89-14.92-8.45-21.39-5.35-3.37,1.41-5.19,8.98-7.31,15.21-3.2,9.36-3.11,15.2-3.94,25.06-1.2,14.12-1.95,22.43.84,36.33,2.41,12.02,3.79,19.43,10.69,29.57,5.11,7.51,7.55,16.98,16.6,16.34a15.3,15.3,0,0,0,6.19-1.69c2.99-1.38,4.83-2.4,6.76-5.07,3.08-4.28,2.15-8,2.81-13.24.76-5.99,1.33-9.59,0-15.48-.56-2.48-1.92-3.66-1.97-6.2-.06-3.75.15-7.09,3.38-9.01,3.5-2.11,6.6-.63,10.41.82Z" fill="#007e31"/><path d="M1128.33,285.98c-9.57,1.97-27.86,7.32-34.05,13.51-.84.85,1.91,4.17,3.94,3.66l30.67-7.6a5.015,5.015,0,0,0,3.94-5.63,5.355,5.355,0,0,0-4.5-3.94Zm-9.57-63.64a7.025,7.025,0,0,0-6.47-3.38c-3.51.25-3.63,4.14-5.63,7.04-5.95,8.64-9,14.92-9,25.34,0,15.77-5.58,31.5,5.06,28.16l24.2-7.6c3.43-1.08,1.97-5.63,1.97-9.01-1.12-8.17-1.6-14.09-3.94-22.81-1.89-7.08-1.96-9.57-6.19-17.74Zm12.1-47.59c3,.59,5,.35,7.6,1.97,3.43,2.14,3.73,5.15,5.63,8.73,3.8,7.19,3.81,12.14,5.91,19.99,3.94,14.73,5.28,23.27,7.88,38.3,3.23,18.66,4.77,29.27,6.19,48.15.87,11.62,1.46,18.21,1.12,29.85-.58,19.97,4.22,50.96-7.31,50.69l-36.58-.85a4.165,4.165,0,0,1-3.94-3.66c-1.12-6.76-1.45-10.3,0-16.62,1.75-7.57,6.18-10.47,9.57-17.46,2.6-5.36,6.19-7.88,5.91-14.08-.28-2.54-.28-6.76-3.1-6.76-8.44,1.12-19.84.72-29.54,7.6-4.3,3.05-6.95,4.98-9.57,9.57-4.09,7.18-.62,12.93-1.69,21.12-1.04,7.97,3.89,17.53-3.66,20.27-2.99,1.09-5.35-1.12-8.16,0-9.29,3.95-5.91-14.92-5.91-23.93,0-20.84.89-33.39,2.81-54.64,1.95-21.49,2.14-33.83,6.76-54.91,3.47-15.85,5.91-25.34,11.54-39.99,3.94-9.57,4.5-22.25,15.48-23.37,8.15-.81,14.23-1.71,23.06.03Z" fill="#007e31" fill-rule="evenodd"/><path d="M1193.05,173.91c16.04-3.94,26.16-4.77,43.05-4.79,10.78-.01,17.25-1.13,27.57,1.97,3.83,1.15,6.78.8,9.57,3.66,3.63,3.71,2.72,7.77,3.1,12.95.53,7.48-1.21,11.78-3.66,18.87-2.66,7.71-3.74,12.89-9.57,18.59-3.98,3.88-6.86,6.44-12.38,7.04-3.99.43-7.29,1.13-10.13-1.69-4-3.97-.36-9.11,1.69-14.36,1.04-2.65,3.11-3.64,3.37-6.48.36-3.82-1.8-5.82-3.94-9.01-4.26-6.35-8.81-8.78-16.04-11.26-5.02-1.73-8.32-2.8-13.5-1.69-3.6.77-6.19,1.31-8.44,4.22-2.27,2.93-1.96,5.59-1.97,9.29-.01,4.83,1.42,7.55,3.66,11.83,3.52,6.75,8.33,8.5,13.79,13.8,8.8,8.54,14.06,13.07,22.51,21.96,6.26,6.6,10.32,9.96,15.48,17.46,5.34,7.77,8.12,12.61,10.69,21.68a68.5,68.5,0,0,1,1.97,9.29c2.14,13.46.74,21.46-1.41,34.92-1.8,11.28-1.96,18.2-7.04,28.44-2.54,5.13-3.19,9.11-7.88,12.39-4.67,3.28-9.57,2.82-14.35,2.82-12.67,0-18.59,1.98-30.11-.28-5.01-.99-8.05-1.19-12.67-3.38-7.57-3.6-11.15-7.74-15.48-14.92-5.22-8.68-4.98-15.24-5.63-25.35-.72-11.25.33-17.8,3.09-28.73,2.54-10.04,3.94-15.77,9.57-24.78,2.53-4.23,3.7-3.63,6.75-4.23,5.45-1.07,8.69,2.35,12.94,5.91,3.53,2.95,4.91,5.28,7.6,9.01a56.289,56.289,0,0,1,8.16,15.77c2.5,6.86,2.49,11.15,3.94,18.31.89,4.39,2.71,6.81,2.25,11.26-.3,2.98.2,5.6-2.25,7.33a4.792,4.792,0,0,1-4.5.56c-2.98-.83-2.3-4.26-3.66-7.04-2.17-4.42-1.85-7.83-5.07-11.55-2.09-2.43-3.27-4.91-6.47-5.07-3.95-.19-4.88,4-7.03,7.32a20.1,20.1,0,0,0-2.53,6.19c-1.19,4.04-1.75,6.5-1.41,10.7a21.651,21.651,0,0,0,3.65,10.99c2.17,3.5,3.95,7.32,7.6,7.32,7.03.84,11.93,1.38,18.86-1.12a28.615,28.615,0,0,0,11.54-7.04c8.03-7.62,10.53-15.12,10.97-26.18.29-7.11-.63-11.26-2.82-18.03-3.89-12.02-10-17.21-18.29-26.75-7.12-8.21-13.26-10.82-20.26-19.15-10.69-12.73-15.95-21.17-21.38-36.89-5.47-15.82-7.32-22.53-5.91-42.52.03-4.78,7.9-8.44,12.41-9.56Z" fill="#007e31"/><path d="M1328.74,223.47a6.4,6.4,0,0,0-6.19-3.38c-3.42.25-3.64,3.96-5.63,6.76-6.11,8.57-9.29,14.92-9.29,25.34,0,16.05-5.4,31.86,5.35,28.44l23.92-7.6c3.32-1.06,2.25-5.91,1.97-8.73a126.7,126.7,0,0,0-3.94-23.09c-1.9-7.08-1.97-9.86-6.19-17.74Zm9.57,63.92c-9.57,1.69-27.57,7.04-34.04,13.24-.29.84,1.83,4.47,3.94,3.94l30.67-7.61a5.028,5.028,0,0,0,3.66-5.91c-.41-2.14-3.11-3.66-4.23-3.66Zm2.53-111.51c3,.61,5,.34,7.59,1.97,3.43,2.15,3.75,5.14,5.63,8.73,3.77,7.2,3.85,12.13,5.91,19.99,3.88,14.83,4.91,23.48,7.59,38.58,3.3,18.57,5.4,29.07,6.76,47.87a250.665,250.665,0,0,1,.84,30.14c-.63,19.87,4.27,50.59-7.6,50.41l-36.58-.56c-2.1-.03-3.38-2.53-3.66-3.94-.84-6.48-1.41-10.29,0-16.61,1.72-7.67,6.22-10.63,9.57-17.74,2.47-5.26,6.47-7.61,5.63-13.8,0-2.53-.28-6.76-2.53-6.76-9.01,1.13-20.23.6-30.11,7.6-4.31,3.06-7,4.97-9.57,9.58-4.01,7.2-.11,12.93-1.12,21.12-1.01,8.1,3.76,17.87-3.94,20.55-3.01,1.05-5.63-1.41-8.16,0-9,3.66-5.91-15.2-5.91-24.22,0-20.84,1.17-33.38,3.1-54.63,1.95-21.48,1.98-33.82,6.47-54.91,3.37-15.88,5.63-25.34,11.54-39.99,3.66-9.57,4.5-22.25,15.48-23.37,8.16-.86,14.24-1.79,23.07-.01Z" fill="#007e31" fill-rule="evenodd"/><path d="M490.29,466.17H479.62V426.62h18.86v9.29h-8.19v5.77h7.63v8.93h-7.63Z" fill="#007e31"/><path d="M552.74,466.17H541.2l-5.27-14.09a7.816,7.816,0,0,0-.28-.95c-.12-.39-.27-.86-.46-1.4l.08,2.61v13.83H524.65V426.62h10.93q7.215,0,10.8,2.84c3.04,2.43,4.56,5.87,4.56,10.35q0,7.17-6.11,9.91l7.91,16.45Zm-17.43-21.24h.72a3.9,3.9,0,0,0,3.07-1.41,5.251,5.251,0,0,0,1.23-3.59c0-2.95-1.55-4.43-4.63-4.43h-.38v9.43Z" fill="#007e31" fill-rule="evenodd"/><path d="M606.75,466.17H595.72l-.79-5.02h-7.19l-.87,5.02H575.84l9.49-39.55h13.05l8.37,39.55Zm-13.08-13.5-.69-4.61a4.227,4.227,0,0,1-.1-.69c-.03-.38-.21-1.86-.54-4.46-.03-.29-.08-.68-.13-1.18s-.12-1.15-.21-1.92l-.33-3.74c-.03.35-.08.76-.15,1.2-.05.44-.11.93-.18,1.46-.12,1.06-.21,1.79-.26,2.21-.05.4-.09.65-.1.74l-.74,4.79-1.08,6.2h4.51Z" fill="#007e31" fill-rule="evenodd"/><path d="M631.86,466.17V426.62h10.19l5.35,13.88c.29.82.61,1.76.97,2.82.38,1.06.78,2.28,1.23,3.66l1.1,3.48q-.585-5.145-.9-8.81c-.2-2.44-.31-4.49-.31-6.15v-8.89h10.19v39.55H649.49l-5.37-14.55c-.56-1.56-1.07-3.01-1.54-4.35-.44-1.37-.84-2.67-1.18-3.9.22,2.78.38,5.21.49,7.27s.15,3.88.15,5.43v10.1H631.86Z" fill="#007e31"/><path d="M709.8,454l-.61,11.42a17.382,17.382,0,0,1-6.37,1.43,14.629,14.629,0,0,1-11.16-4.87q-5.07-5.46-5.07-15.44,0-9.345,4.76-15.01a15.814,15.814,0,0,1,12.72-5.63,15.383,15.383,0,0,1,5.27.97v11.3a6.96,6.96,0,0,0-4.89-2.38,5.819,5.819,0,0,0-5.12,2.79c-1.23,1.88-1.84,4.47-1.84,7.79a18.114,18.114,0,0,0,.46,4.3,10.441,10.441,0,0,0,1.3,3.2,6.054,6.054,0,0,0,2.13,2,5.859,5.859,0,0,0,2.87.69A8.291,8.291,0,0,0,709.8,454Z" fill="#007e31"/><path d="M763.32,466.17H752.64V450.25h-5.09v15.92H736.88V426.62h10.67V440.6h5.09V426.62h10.68Z" fill="#007e31"/><path d="M801.53,466.17H790.86V426.62h10.67Z" fill="#007e31"/><path d="M828.22,465.19V452.77q3.15,4.3,6.81,4.31a3.413,3.413,0,0,0,2.25-.72,2.339,2.339,0,0,0,.87-1.85,4.137,4.137,0,0,0-1.89-3.1l-1.74-1.36a24.81,24.81,0,0,1-2.97-2.59,13.851,13.851,0,0,1-1.99-2.66,11.225,11.225,0,0,1-1.13-2.84,12.866,12.866,0,0,1-.36-3.08,14.934,14.934,0,0,1,1.28-5.79,15.162,15.162,0,0,1,1.48-2.56,10.1,10.1,0,0,1,1.95-2.07,10.887,10.887,0,0,1,7.29-2.56,16.45,16.45,0,0,1,7.68,2.02v12.09a11.132,11.132,0,0,0-2.97-3.18,5.636,5.636,0,0,0-3.27-1.18,2.889,2.889,0,0,0-2.02.72,2.086,2.086,0,0,0-.82,1.66c0,1.06.73,2.11,2.18,3.15l1.69,1.26a16.49,16.49,0,0,1,4.84,5,11.7,11.7,0,0,1,1.48,5.99,13.569,13.569,0,0,1-3.55,9.63,11.818,11.818,0,0,1-9.01,3.79,22.228,22.228,0,0,1-8.08-1.66Z" fill="#007e31"/><path d="M885.71,466.17H875.04V426.62h10.67Z" fill="#007e31"/><path d="M913.25,466.17V426.62h10.19l5.35,13.88c.29.82.61,1.76.97,2.82q.57,1.59,1.23,3.66l1.1,3.48q-.585-5.145-.9-8.81t-.31-6.15v-8.89h10.18v39.55H930.88l-5.38-14.55q-.84-2.34-1.53-4.35c-.44-1.37-.83-2.67-1.18-3.9.22,2.78.39,5.21.48,7.27.11,2.07.15,3.88.15,5.43v10.1H913.25Z" fill="#007e31"/><path d="M982.83,443.29h14.89v1.64q0,11.415-3.4,16.44c-2.47,3.66-6.14,5.48-10.98,5.48a13.268,13.268,0,0,1-11.21-5.38q-4.05-5.43-4.04-14.9,0-9.615,4.06-15.14a13.09,13.09,0,0,1,11.14-5.53q9.36,0,13.59,9.78l-10.34,3.79a5.7,5.7,0,0,0-1.08-2.94,2.478,2.478,0,0,0-2.07-1.1q-4.395,0-4.4,12.12a20.856,20.856,0,0,0,.98,7.48,3.244,3.244,0,0,0,3.1,2.33,2.945,2.945,0,0,0,1.53-.41,3.247,3.247,0,0,0,1.15-1.15,5.841,5.841,0,0,0,.74-1.79,9.307,9.307,0,0,0,.28-2.38h-3.94v-8.34Z" fill="#007e31"/><path d="M1062.07,466.17V426.62h10.19l5.35,13.88c.29.82.61,1.76.97,2.82.38,1.06.78,2.28,1.22,3.66l1.1,3.48q-.585-5.145-.9-8.81t-.31-6.15v-8.89h10.19v39.55h-10.19l-5.37-14.55c-.56-1.56-1.08-3.01-1.53-4.35-.45-1.37-.84-2.67-1.18-3.9.22,2.78.39,5.21.49,7.27s.15,3.88.15,5.43v10.1h-10.18Z" fill="#007e31"/><path d="M1117.44,466.17V426.62h19.83v9.29h-9.16v5.77h8.21v8.93h-8.21v6.05h9.16v9.51Z" fill="#007e31"/><path d="M1177.64,466.17h-10.68V436.09h-5.89v-9.47h22.68v9.47h-6.11Z" fill="#007e31"/><path d="M1244.2,466.17h-10.29l-2.46-13.86q-.72-4.02-1.08-6.97c-.12-.98-.22-1.79-.31-2.44s-.15-1.14-.18-1.48c-.08.7-.21,2-.38,3.92-.08.97-.19,1.99-.31,3.07s-.27,2.21-.44,3.41l-2.02,14.34h-10.39l-8.81-39.55h10.55l1.74,10.88c.66,4.34,1.13,7.75,1.38,10.22l.36,3.61.33-3.1q.54-5.43,1.39-10.32l1.99-11.29h9.19l1.79,9.5q1.275,6.63,2.23,15.7c.18-2.72.39-5.13.61-7.23s.47-4,.74-5.71l1.95-12.26h10.41l-7.99,39.56Z" fill="#007e31"/><path d="M1306.03,446.52q0,9.045-4.12,14.7a12.611,12.611,0,0,1-10.67,5.63,13.434,13.434,0,0,1-10.01-4.33q-5.25-5.475-5.25-16.44,0-10.5,5.48-16.06a13.085,13.085,0,0,1,9.64-4.12,12.763,12.763,0,0,1,10.88,5.58q4.05,5.58,4.05,15.04Zm-11.08.07q0-10.725-3.79-10.73c-1.26,0-2.27.94-3.02,2.82a20.74,20.74,0,0,0-1.1,7.68,23.306,23.306,0,0,0,1.02,7.76c.7,1.83,1.66,2.74,2.89,2.74,1.27,0,2.23-.91,2.92-2.72a20.789,20.789,0,0,0,1.08-7.55Z" fill="#007e31" fill-rule="evenodd"/><path d="M1360.7,466.17h-11.54l-5.27-14.09a7.828,7.828,0,0,0-.28-.95c-.12-.39-.27-.86-.46-1.4l.07,2.61v13.83H1332.6V426.62h10.93q7.215,0,10.8,2.84c3.04,2.43,4.55,5.87,4.55,10.35q0,7.17-6.12,9.91l7.94,16.45Zm-17.42-21.24h.72a3.9,3.9,0,0,0,3.07-1.41,5.251,5.251,0,0,0,1.23-3.59q0-4.425-4.63-4.43h-.38v9.43Z" fill="#007e31" fill-rule="evenodd"/><path d="M1415.24,466.17h-11.51l-7.09-18.24.28,18.24h-10.67V426.62h10.67l-.28,16.95,6.3-16.95h11.26l-8.53,19.08Z" fill="#007e31"/><path d="M90.72,144.685H385.63a18.063,18.063,0,0,1,18.075,18.075V436.44a18.063,18.063,0,0,1-18.075,18.075H90.72A18.063,18.063,0,0,1,72.645,436.44V162.76A18.063,18.063,0,0,1,90.72,144.685Zm294.91,307.4a15.647,15.647,0,0,0,15.645-15.645V162.76a15.647,15.647,0,0,0-15.645-15.645H90.72A15.647,15.647,0,0,0,75.075,162.76V436.44A15.647,15.647,0,0,0,90.72,452.085Z" fill="#007e31"/><path d="M182.54,348.34a57.451,57.451,0,1,1,57.45,57.04,57.255,57.255,0,0,1-57.45-57.04Z" fill="#007e31"/><path d="M124.86,297.12l32.44,35.72,83.34-73.18L319,333.09l34.93-35.32L239.88,188.66Z" fill="#007e31"/><path d="M1962.9,200.74a143.313,143.313,0,1,0-189.04,189.1c.11.05.16.05.26.1l43.96-43.96c-.1,0-.21-.05-.3-.05a88.294,88.294,0,1,1,101.23-101.28c0,.1.05.25.05.36L1963.02,201A1.954,1.954,0,0,1,1962.9,200.74ZM1681.81,306.67q-17.01-22.365-47.06-31.33c15.25-7.49,26.89-17.25,34.9-29.41a71.218,71.218,0,0,0,12.04-40.16q0-35.43-27.53-61.27-22.095-20.775-52.78-24.79l-88.74,88.74h31.92a40.931,40.931,0,0,1,15.03-21.16,39.937,39.937,0,0,1,24.49-8.24c10.17,0,18.42,2.98,24.67,8.88,6.31,5.91,9.41,13.34,9.41,22.33a34.463,34.463,0,0,1-6.14,19.52,42.384,42.384,0,0,1-17.3,14.5c-7.42,3.5-18.65,5.85-33.79,7.07v53.84q36.825.435,56.36,15.9,19.545,15.51,19.52,37.93a46.428,46.428,0,0,1-14.5,34.55q-14.46,14.115-36.47,14.15c-14.03,0-25.67-4.15-34.84-12.45-9.24-8.3-15.15-20.99-17.89-38.05h-62.14q2.9,50.055,33.2,79.15,30.345,29.025,78.33,29.06,50.685,0,83.48-30.87t32.73-75.29Q1698.695,328.955,1681.81,306.67Z" fill="url(#a)"/><path d="M1828.74,332.11l-1.95-6.69h-11.37l-2.18,6.69h-6.82l10.99-32.42h7.47l10.86,32.42Zm-7.66-25.15h-.05l-3.94,12.89h7.84Z" fill="#1fa22e"/><path d="M1836.846,332.906h-8.7l-1.95-6.69H1816l-2.18,6.69h-8.508l11.53-34.012h8.614l.182.543Zm-7.509-1.592h5.3l-10.327-30.828h-6.326l-10.45,30.828h5.131l2.18-6.69h12.545ZM1826,320.646h-9.984l4.427-14.482h1.232Zm-7.833-1.592h5.7l-2.815-9.424Z" fill="#1fa22e"/><path d="M1857.27,332.11l-13.17-21.78v21.78h-5.98V299.69h6.82l12.25,20.85V299.69h6.03v32.42Z" fill="#1fa22e"/><path d="M1864.016,332.906h-7.2L1844.9,313.185v19.721h-7.572V298.894h8.072l.231.393,10.767,18.327V298.894h7.622Zm-6.3-1.592h4.7V300.486h-4.438v22.981l-13.5-22.981h-5.568v30.828h4.388V307.475Z" fill="#1fa22e"/><path d="M1866.45,332.11V299.69h6.45v32.42Z" fill="#1fa22e"/><path d="M1873.7,332.906h-8.042V298.894h8.042Zm-6.45-1.592h4.858V300.486h-4.858Z" fill="#1fa22e"/><path d="M1885.66,332.11l-10.44-32.42h6.87l6.73,22.75,6.68-22.75h6.68l-10.44,32.42Z" fill="#1fa22e"/><path d="M1892.32,332.906h-7.24l-.178-.552-10.775-33.46h8.557l6.132,20.73,6.087-20.73h8.369Zm-6.08-1.592h4.92l9.927-30.828H1896.1l-7.273,24.77-7.328-24.77h-5.182Z" fill="#1fa22e"/><path d="M1904.58,332.11V299.69h22.64v5.66h-16.38v6.93h15.08V318h-15.08v8.35h17.12v5.76h-23.38Z" fill="#1fa22e"/><path d="M1928.756,332.906h-24.972V298.894h24.232v7.252h-16.38v5.338h15.08V318.8h-15.08v6.758h17.12Zm-23.38-1.592h21.788v-4.168h-17.12V317.2h15.08v-4.128h-15.08v-8.522h16.38v-4.068h-21.048Z" fill="#1fa22e"/><path d="M1948.14,332.11v-8.35a4.539,4.539,0,0,0-1.02-3.34c-.68-.67-1.95-1-3.8-1h-6.87v12.7h-6.26V299.7h15.63a10.219,10.219,0,0,1,3.87.71,8.9,8.9,0,0,1,2.99,1.95,8.364,8.364,0,0,1,1.92,2.98,10.224,10.224,0,0,1,.67,3.74,9.043,9.043,0,0,1-1.18,4.66,6.493,6.493,0,0,1-3.41,2.86,5.149,5.149,0,0,1,2.9,2.1,8.393,8.393,0,0,1,.86,4.25v9.18h-6.3Zm-11.69-26.81v8.64h8.07a4.673,4.673,0,0,0,3.66-1.22,4.511,4.511,0,0,0,1.07-3.08,4.646,4.646,0,0,0-1.04-3.12,4.351,4.351,0,0,0-3.46-1.22h-8.3Z" fill="#1fa22e"/><path d="M1955.236,332.926h-7.892V323.76a3.9,3.9,0,0,0-.778-2.769l0,0c-.357-.352-1.209-.771-3.241-.771h-6.074v12.7h-7.852V298.9h16.426a11.053,11.053,0,0,1,4.169.768,9.725,9.725,0,0,1,3.254,2.125,9.185,9.185,0,0,1,2.1,3.257,11.092,11.092,0,0,1,.723,4.026,9.88,9.88,0,0,1-1.289,5.062,7.245,7.245,0,0,1-2.278,2.422,5.168,5.168,0,0,1,1.762,1.723,9.055,9.055,0,0,1,.975,4.663Zm-6.3-1.592h4.708V322.95a7.714,7.714,0,0,0-.747-3.84,4.4,4.4,0,0,0-2.472-1.755l-2.106-.712,2.079-.787a5.668,5.668,0,0,0,3-2.517,8.2,8.2,0,0,0,1.071-4.258,9.377,9.377,0,0,0-.616-3.452l0-.006a7.6,7.6,0,0,0-1.739-2.7,8.143,8.143,0,0,0-2.726-1.775,9.472,9.472,0,0,0-3.571-.652h-14.834v30.828h4.668v-12.7h7.666c2.091,0,3.516.4,4.356,1.227a5.28,5.28,0,0,1,1.26,3.91Zm-4.416-16.6h-8.866V304.5h9.1a5.112,5.112,0,0,1,4.062,1.5l0,0a5.435,5.435,0,0,1,1.23,3.636,5.3,5.3,0,0,1-1.267,3.6A5.421,5.421,0,0,1,1944.52,314.736Zm-7.274-1.592h7.274a3.977,3.977,0,0,0,3.061-.949,3.7,3.7,0,0,0,.872-2.555,3.844,3.844,0,0,0-.848-2.6,3.646,3.646,0,0,0-2.856-.943h-7.5Z" fill="#1fa22e"/><path d="M1975.37,309.26a5.2,5.2,0,0,0-1.72-3.71,6.907,6.907,0,0,0-4.45-1.22q-5.475,0-5.47,3.96a2.981,2.981,0,0,0,1.14,2.37,9.366,9.366,0,0,0,3.64,1.59c1.98.49,3.7.94,5.15,1.37a29.428,29.428,0,0,1,3.99,1.46,9.639,9.639,0,0,1,1.92,1.1,6.152,6.152,0,0,1,1.53,1.64,8.376,8.376,0,0,1,1,2.34,12.726,12.726,0,0,1,.37,3.32,8.934,8.934,0,0,1-.93,4.15,9.247,9.247,0,0,1-2.5,3.05,11.318,11.318,0,0,1-3.71,1.9,15.119,15.119,0,0,1-4.5.66c-4.48,0-7.86-.91-10.11-2.73s-3.45-4.52-3.57-8.11h6.22a4.788,4.788,0,0,0,1.93,3.93,7.506,7.506,0,0,0,4.71,1.44,7.727,7.727,0,0,0,4.64-1.17,3.751,3.751,0,0,0,1.58-3.17,5.072,5.072,0,0,0-.19-1.44,2.688,2.688,0,0,0-.72-1.2,4.672,4.672,0,0,0-1.46-.95,13.288,13.288,0,0,0-2.41-.76q-3.525-.78-6.1-1.59a14.809,14.809,0,0,1-4.24-2,7.426,7.426,0,0,1-2.46-2.91,10.346,10.346,0,0,1-.79-4.35,10.014,10.014,0,0,1,.7-3.76,8.073,8.073,0,0,1,2.13-3.05,10.521,10.521,0,0,1,3.55-2.05,14.918,14.918,0,0,1,4.99-.76,15.327,15.327,0,0,1,5.01.76,11.441,11.441,0,0,1,3.83,2.15,9.562,9.562,0,0,1,2.48,3.37,11.7,11.7,0,0,1,.97,4.37h-6.15Z" fill="#1fa22e"/><path d="M1969.23,297.814a16.194,16.194,0,0,1,5.269.8,12.292,12.292,0,0,1,4.093,2.3,10.42,10.42,0,0,1,2.684,3.646,12.532,12.532,0,0,1,1.039,4.665l.031.826h-7.7l-.069-.72a4.408,4.408,0,0,0-1.432-3.17,6.2,6.2,0,0,0-3.946-1.04,6.291,6.291,0,0,0-3.637.839,2.656,2.656,0,0,0-1.037,2.325,2.175,2.175,0,0,0,.857,1.761,8.732,8.732,0,0,0,3.321,1.427c2.195.543,3.841.981,5.18,1.378a30.345,30.345,0,0,1,4.087,1.5,10.478,10.478,0,0,1,2.07,1.186,6.965,6.965,0,0,1,1.728,1.85,9.091,9.091,0,0,1,1.1,2.561,13.561,13.561,0,0,1,.4,3.531,9.74,9.74,0,0,1-1.019,4.515,10.078,10.078,0,0,1-2.714,3.309,12.158,12.158,0,0,1-3.968,2.036,15.984,15.984,0,0,1-4.736.7c-4.656,0-8.226-.978-10.611-2.907-2.437-1.962-3.738-4.891-3.865-8.7l-.028-.823h7.825l.014.782a4,4,0,0,0,1.617,3.311,6.768,6.768,0,0,0,4.227,1.277,7.016,7.016,0,0,0,4.165-1.013,2.964,2.964,0,0,0,1.259-2.531,4.256,4.256,0,0,0-.157-1.215l0-.016a1.89,1.89,0,0,0-.515-.847,3.919,3.919,0,0,0-1.215-.783l-.01,0a12.448,12.448,0,0,0-2.258-.709c-2.349-.52-4.422-1.06-6.163-1.607a15.48,15.48,0,0,1-4.467-2.114,8.245,8.245,0,0,1-2.716-3.22,11.173,11.173,0,0,1-.864-4.686,10.831,10.831,0,0,1,.757-4.057,8.909,8.909,0,0,1,2.338-3.346,11.354,11.354,0,0,1,3.815-2.207A15.775,15.775,0,0,1,1969.23,297.814Zm11.437,10.65a10.588,10.588,0,0,0-.844-3.249,8.719,8.719,0,0,0-2.276-3.094,10.709,10.709,0,0,0-3.567-2,14.615,14.615,0,0,0-4.751-.717,14.2,14.2,0,0,0-4.724.714,9.773,9.773,0,0,0-3.285,1.893,7.231,7.231,0,0,0-1.922,2.754,9.248,9.248,0,0,0-.643,3.463,9.633,9.633,0,0,0,.716,4.014,6.674,6.674,0,0,0,2.2,2.6,13.942,13.942,0,0,0,4.013,1.886c1.7.533,3.728,1.062,6.033,1.572l.008,0a13.992,13.992,0,0,1,2.552.808,5.484,5.484,0,0,1,1.7,1.115,3.487,3.487,0,0,1,.923,1.545,5.821,5.821,0,0,1,.22,1.658,4.519,4.519,0,0,1-1.9,3.809,8.5,8.5,0,0,1-5.115,1.327,8.314,8.314,0,0,1-5.195-1.6,5.47,5.47,0,0,1-2.184-3.765h-4.636a11.346,11.346,0,0,0,.866,3.6,8.135,8.135,0,0,0,2.358,3.092c2.1,1.7,5.328,2.554,9.611,2.554a14.4,14.4,0,0,0,4.264-.624,10.579,10.579,0,0,0,3.452-1.764,8.5,8.5,0,0,0,2.286-2.791,8.172,8.172,0,0,0,.841-3.785,12.006,12.006,0,0,0-.342-3.109,7.638,7.638,0,0,0-.9-2.119,5.377,5.377,0,0,0-1.332-1.43,8.879,8.879,0,0,0-1.761-1.01l-.017-.008a28.74,28.74,0,0,0-3.882-1.42h0c-1.316-.39-2.942-.823-5.115-1.36l-.007,0a10.047,10.047,0,0,1-3.954-1.752,3.757,3.757,0,0,1-1.423-2.979,4.2,4.2,0,0,1,1.7-3.615,9.586,9.586,0,0,1,9.525.259,5.657,5.657,0,0,1,1.911,3.53Z" fill="#1fa22e"/><path d="M2004.92,332.11l-1.95-6.69H1991.6l-2.18,6.69h-6.82l10.99-32.42h7.47l10.86,32.42Zm-7.65-25.15h-.05l-3.94,12.89h7.84Z" fill="#1fa22e"/><path d="M2013.026,332.906h-8.7l-1.95-6.69h-10.195l-2.18,6.69h-8.508l11.53-34.012h8.614l.182.543Zm-7.509-1.592h5.3l-10.327-30.828h-6.326l-10.45,30.828h5.131l2.18-6.69h12.545Zm-3.328-10.668H1992.2l4.427-14.482h1.232Zm-7.833-1.592h5.7l-2.815-9.424Z" fill="#1fa22e"/><path d="M2032.24,332.11v-8.35a4.539,4.539,0,0,0-1.02-3.34c-.68-.67-1.95-1-3.8-1h-6.87v12.7h-6.26V299.7h15.63a10.219,10.219,0,0,1,3.87.71,8.9,8.9,0,0,1,2.99,1.95,8.364,8.364,0,0,1,1.92,2.98,10.224,10.224,0,0,1,.67,3.74,9.043,9.043,0,0,1-1.18,4.66,6.493,6.493,0,0,1-3.41,2.86,5.149,5.149,0,0,1,2.9,2.1,8.393,8.393,0,0,1,.86,4.25v9.18h-6.3Zm-11.69-26.81v8.64h8.07a4.673,4.673,0,0,0,3.66-1.22,4.511,4.511,0,0,0,1.07-3.08,4.646,4.646,0,0,0-1.04-3.12,4.351,4.351,0,0,0-3.46-1.22h-8.3Z" fill="#1fa22e"/><path d="M2039.336,332.926h-7.892V323.76a3.9,3.9,0,0,0-.778-2.769l0,0c-.357-.352-1.209-.771-3.241-.771h-6.074v12.7h-7.852V298.9h16.426a11.053,11.053,0,0,1,4.169.768,9.725,9.725,0,0,1,3.254,2.125,9.185,9.185,0,0,1,2.1,3.257,11.092,11.092,0,0,1,.723,4.026,9.88,9.88,0,0,1-1.289,5.062,7.245,7.245,0,0,1-2.278,2.422,5.168,5.168,0,0,1,1.762,1.723,9.055,9.055,0,0,1,.975,4.663Zm-6.3-1.592h4.708V322.95a7.714,7.714,0,0,0-.747-3.84,4.4,4.4,0,0,0-2.472-1.755l-2.106-.712,2.079-.787a5.668,5.668,0,0,0,3-2.517,8.2,8.2,0,0,0,1.071-4.258,9.377,9.377,0,0,0-.616-3.452l0-.006a7.6,7.6,0,0,0-1.739-2.7,8.143,8.143,0,0,0-2.726-1.775,9.472,9.472,0,0,0-3.571-.652h-14.834v30.828h4.668v-12.7h7.666c2.091,0,3.516.4,4.356,1.227a5.28,5.28,0,0,1,1.26,3.91Zm-4.416-16.6h-8.866V304.5h9.1a5.112,5.112,0,0,1,4.062,1.5l0,0a5.435,5.435,0,0,1,1.23,3.636,5.3,5.3,0,0,1-1.267,3.6A5.421,5.421,0,0,1,2028.62,314.736Zm-7.274-1.592h7.274a3.977,3.977,0,0,0,3.061-.949,3.7,3.7,0,0,0,.872-2.555,3.844,3.844,0,0,0-.848-2.6,3.646,3.646,0,0,0-2.856-.943h-7.5Z" fill="#1fa22e"/><path d="M2042.03,332.11V299.69h6.45v32.42Z" fill="#1fa22e"/><path d="M2049.276,332.906h-8.042V298.894h8.042Zm-6.45-1.592h4.858V300.486h-4.858Z" fill="#1fa22e"/><path d="M2066.15,333.23q-7.14,0-10.97-4.39t-3.83-12.65a25.8,25.8,0,0,1,.97-7.37,15.269,15.269,0,0,1,2.88-5.54,12.549,12.549,0,0,1,4.64-3.47,17.138,17.138,0,0,1,12.6,0,12.014,12.014,0,0,1,4.62,3.49,15.919,15.919,0,0,1,2.83,5.59,26.268,26.268,0,0,1,.97,7.45q0,8.4-3.78,12.65T2066.15,333.23Zm0-5.81a8.141,8.141,0,0,0,3.25-.66,7.284,7.284,0,0,0,2.67-2,9.717,9.717,0,0,0,1.79-3.44,17.046,17.046,0,0,0,.65-4.98q0-5.76-2.13-8.74a7.164,7.164,0,0,0-6.22-2.98,7.273,7.273,0,0,0-6.26,2.98q-2.175,2.985-2.18,8.74t2.2,8.42A7.6,7.6,0,0,0,2066.15,327.42Z" fill="#1fa22e"/><path d="M2066.15,334.026c-4.984,0-8.877-1.569-11.571-4.663-2.671-3.069-4.026-7.5-4.026-13.173a26.7,26.7,0,0,1,1-7.6,16.119,16.119,0,0,1,3.033-5.825,13.406,13.406,0,0,1,4.93-3.687,17.927,17.927,0,0,1,13.236,0,12.864,12.864,0,0,1,4.921,3.719,16.8,16.8,0,0,1,2.975,5.866,27.206,27.206,0,0,1,1,7.676,26.717,26.717,0,0,1-.978,7.592,14.576,14.576,0,0,1-3,5.588C2075.011,332.51,2071.134,334.026,2066.15,334.026Zm0-34.62a14.906,14.906,0,0,0-5.991,1.133,11.827,11.827,0,0,0-4.349,3.253,14.539,14.539,0,0,0-2.726,5.255,25.124,25.124,0,0,0-.937,7.143c0,5.276,1.223,9.356,3.635,12.127a11.239,11.239,0,0,0,4.351,3.077,16.2,16.2,0,0,0,6.018,1.039,16.669,16.669,0,0,0,6.017-1,11.07,11.07,0,0,0,4.318-2.968c2.374-2.667,3.578-6.745,3.578-12.121a25.631,25.631,0,0,0-.937-7.224,15.226,15.226,0,0,0-2.685-5.314,11.289,11.289,0,0,0-4.319-3.261A14.921,14.921,0,0,0,2066.15,299.406Zm0,28.81a8.389,8.389,0,0,1-6.845-2.951,9.576,9.576,0,0,1-1.806-3.738,20.81,20.81,0,0,1-.574-5.187c0-3.986.785-7.085,2.333-9.209a8.058,8.058,0,0,1,6.9-3.307,7.944,7.944,0,0,1,6.868,3.314c1.511,2.118,2.278,5.215,2.278,9.2a17.9,17.9,0,0,1-.685,5.214v0a10.552,10.552,0,0,1-1.944,3.718,8.1,8.1,0,0,1-2.96,2.214A8.946,8.946,0,0,1,2066.15,328.216Zm.01-22.8a6.464,6.464,0,0,0-5.616,2.653c-1.345,1.846-2.027,4.629-2.027,8.271s.678,6.3,2.016,7.911a6.788,6.788,0,0,0,5.617,2.372,7.363,7.363,0,0,0,2.935-.595,6.522,6.522,0,0,0,2.38-1.786,8.987,8.987,0,0,0,1.635-3.159,16.336,16.336,0,0,0,.614-4.744c0-3.65-.667-6.435-1.982-8.278A6.354,6.354,0,0,0,2066.16,305.416Z" fill="#1fa22e"/><path d="M1811.65,287.27V269.24h-5.07v-3.53a11.386,11.386,0,0,0,2.69-.27,4.42,4.42,0,0,0,1.77-.84,3.56,3.56,0,0,0,1.04-1.41,6.852,6.852,0,0,0,.47-1.98h3.96v26.08h-4.86Z" fill="#87bc57"/><path d="M1817.306,288.086h-6.452v-18.05h-5.07v-5.122h.8a10.7,10.7,0,0,0,2.5-.247,3.656,3.656,0,0,0,1.453-.681,2.782,2.782,0,0,0,.811-1.1l0-.011a6.045,6.045,0,0,0,.41-1.75l.075-.713h5.473Zm-4.86-1.592h3.268V262.006h-2.471a6.776,6.776,0,0,1-.429,1.492,4.357,4.357,0,0,1-1.267,1.715,5.224,5.224,0,0,1-2.084,1,10.732,10.732,0,0,1-2.087.277v1.955h5.07Z" fill="#87bc57"/><path d="M1824.11,281.65a2.346,2.346,0,0,0,2.61,2.44,3.185,3.185,0,0,0,3-2.02,16.956,16.956,0,0,0,1.21-6.23,7.4,7.4,0,0,1-2.03,1.75,5.949,5.949,0,0,1-3.04.69,6.551,6.551,0,0,1-2.74-.59,6.387,6.387,0,0,1-2.24-1.71,8.323,8.323,0,0,1-1.49-2.71,11.265,11.265,0,0,1-.54-3.63,11.145,11.145,0,0,1,.6-3.71,9.119,9.119,0,0,1,1.66-2.95,7.567,7.567,0,0,1,2.57-1.94,7.811,7.811,0,0,1,3.34-.71,7.28,7.28,0,0,1,6.55,3.3q2.145,3.3,2.15,9.78a33.279,33.279,0,0,1-.58,6.72,13.826,13.826,0,0,1-1.72,4.58,7.071,7.071,0,0,1-2.87,2.63,9.215,9.215,0,0,1-4.05.84,7.163,7.163,0,0,1-4.91-1.67,7.446,7.446,0,0,1-2.29-4.85h4.81Zm3.06-7.38a3.242,3.242,0,0,0,2.67-1.32,5.54,5.54,0,0,0,1.03-3.48,6.135,6.135,0,0,0-.99-3.63,3.213,3.213,0,0,0-2.78-1.39,2.866,2.866,0,0,0-1.49.37,3.443,3.443,0,0,0-1.08,1.04,4.965,4.965,0,0,0-.67,1.57,8.114,8.114,0,0,0-.22,1.96,5.818,5.818,0,0,0,.97,3.55A2.98,2.98,0,0,0,1827.17,274.27Z" fill="#87bc57"/><path d="M1826.5,288.976a7.955,7.955,0,0,1-5.436-1.869,8.243,8.243,0,0,1-2.554-5.347l-.114-.9h5.714v.757l.794-.029c.09,1.209.616,1.7,1.816,1.7A2.4,2.4,0,0,0,1829,281.72a12.467,12.467,0,0,0,.96-3.876q-.318.23-.66.432a6.731,6.731,0,0,1-3.444.8,7.381,7.381,0,0,1-3.069-.661,7.224,7.224,0,0,1-2.517-1.918l0,0a9.156,9.156,0,0,1-1.634-2.966,12.108,12.108,0,0,1-.582-3.886,11.973,11.973,0,0,1,.645-3.974,9.97,9.97,0,0,1,1.806-3.2,8.4,8.4,0,0,1,2.836-2.143,8.647,8.647,0,0,1,3.679-.786,8.055,8.055,0,0,1,7.218,3.662c1.512,2.326,2.279,5.763,2.279,10.214a34.237,34.237,0,0,1-.6,6.883,14.5,14.5,0,0,1-1.827,4.843,7.877,7.877,0,0,1-3.194,2.92A10.044,10.044,0,0,1,1826.5,288.976Zm-6.257-6.52a6.225,6.225,0,0,0,1.873,3.456,6.417,6.417,0,0,0,4.384,1.471,8.473,8.473,0,0,0,3.7-.761,6.3,6.3,0,0,0,2.545-2.342,13.142,13.142,0,0,0,1.612-4.315,32.685,32.685,0,0,0,.563-6.557c0-4.138-.68-7.283-2.021-9.346a6.472,6.472,0,0,0-5.883-2.938,7.065,7.065,0,0,0-3,.636,6.722,6.722,0,0,0-2.3,1.736,8.275,8.275,0,0,0-1.514,2.7,10.39,10.39,0,0,0-.555,3.446,10.529,10.529,0,0,0,.5,3.374,7.573,7.573,0,0,0,1.344,2.452,5.568,5.568,0,0,0,1.961,1.5,5.72,5.72,0,0,0,2.411.519,5.194,5.194,0,0,0,2.636-.58,6.635,6.635,0,0,0,1.814-1.563l1.548-1.928-.132,2.469a17.539,17.539,0,0,1-1.29,6.537,3.988,3.988,0,0,1-3.715,2.466,3.4,3.4,0,0,1-2.407-.827,3.109,3.109,0,0,1-.885-1.6Zm6.927-7.39a3.79,3.79,0,0,1-3.2-1.658,6.606,6.606,0,0,1-1.122-4.018,8.916,8.916,0,0,1,.244-2.153,5.717,5.717,0,0,1,.78-1.819l0-.007a4.241,4.241,0,0,1,1.331-1.276,3.656,3.656,0,0,1,1.9-.482,3.982,3.982,0,0,1,3.429,1.725,6.933,6.933,0,0,1,1.137,4.091,6.328,6.328,0,0,1-1.2,3.967l0,0A4.017,4.017,0,0,1,1827.17,275.066Zm-1.98-8.761a4.164,4.164,0,0,0-.558,1.318,7.335,7.335,0,0,0-.2,1.767,5.077,5.077,0,0,0,.812,3.073l.012.017a2.176,2.176,0,0,0,1.91.994,2.463,2.463,0,0,0,2.042-1.013,4.792,4.792,0,0,0,.862-2.991,5.4,5.4,0,0,0-.843-3.169,2.408,2.408,0,0,0-2.131-1.055,2.1,2.1,0,0,0-1.083.258A2.661,2.661,0,0,0,1825.19,266.3Z" fill="#87bc57"/><path d="M1843.03,281.65a2.346,2.346,0,0,0,2.61,2.44,3.185,3.185,0,0,0,3-2.02,16.956,16.956,0,0,0,1.21-6.23,7.4,7.4,0,0,1-2.03,1.75,5.949,5.949,0,0,1-3.04.69,6.551,6.551,0,0,1-2.74-.59,6.387,6.387,0,0,1-2.24-1.71,8.323,8.323,0,0,1-1.49-2.71,11.265,11.265,0,0,1-.54-3.63,11.145,11.145,0,0,1,.6-3.71,9.119,9.119,0,0,1,1.66-2.95,7.567,7.567,0,0,1,2.57-1.94,7.811,7.811,0,0,1,3.34-.71,7.28,7.28,0,0,1,6.55,3.3q2.145,3.3,2.15,9.78a33.279,33.279,0,0,1-.58,6.72,13.826,13.826,0,0,1-1.72,4.58,7.071,7.071,0,0,1-2.87,2.63,9.215,9.215,0,0,1-4.05.84,7.163,7.163,0,0,1-4.91-1.67,7.446,7.446,0,0,1-2.29-4.85h4.81Zm3.06-7.38a3.242,3.242,0,0,0,2.67-1.32,5.54,5.54,0,0,0,1.03-3.48,6.135,6.135,0,0,0-.99-3.63,3.213,3.213,0,0,0-2.78-1.39,2.866,2.866,0,0,0-1.49.37,3.443,3.443,0,0,0-1.08,1.04,4.965,4.965,0,0,0-.67,1.57,8.114,8.114,0,0,0-.22,1.96,5.818,5.818,0,0,0,.97,3.55A2.981,2.981,0,0,0,1846.09,274.27Z" fill="#87bc57"/><path d="M1845.42,288.976a7.955,7.955,0,0,1-5.436-1.869,8.243,8.243,0,0,1-2.554-5.347l-.114-.9h5.714v.757l.794-.029c.09,1.209.616,1.7,1.816,1.7a2.4,2.4,0,0,0,2.285-1.574,12.467,12.467,0,0,0,.96-3.876q-.318.23-.66.432a6.731,6.731,0,0,1-3.444.8,7.381,7.381,0,0,1-3.069-.661,7.224,7.224,0,0,1-2.517-1.918l0,0a9.156,9.156,0,0,1-1.634-2.966,12.108,12.108,0,0,1-.582-3.886,11.973,11.973,0,0,1,.645-3.974,9.97,9.97,0,0,1,1.806-3.2,8.4,8.4,0,0,1,2.836-2.143,8.647,8.647,0,0,1,3.679-.786,8.055,8.055,0,0,1,7.218,3.662c1.512,2.326,2.279,5.763,2.279,10.214a34.237,34.237,0,0,1-.6,6.883,14.5,14.5,0,0,1-1.827,4.843,7.877,7.877,0,0,1-3.194,2.92A10.044,10.044,0,0,1,1845.42,288.976Zm-6.257-6.52a6.225,6.225,0,0,0,1.873,3.456,6.417,6.417,0,0,0,4.384,1.471,8.473,8.473,0,0,0,3.7-.761,6.3,6.3,0,0,0,2.545-2.342,13.142,13.142,0,0,0,1.612-4.315,32.685,32.685,0,0,0,.563-6.557c0-4.138-.68-7.283-2.021-9.346a6.472,6.472,0,0,0-5.883-2.938,7.065,7.065,0,0,0-3,.636,6.723,6.723,0,0,0-2.3,1.736,8.274,8.274,0,0,0-1.514,2.7,10.39,10.39,0,0,0-.555,3.446,10.529,10.529,0,0,0,.5,3.374,7.573,7.573,0,0,0,1.344,2.452,5.568,5.568,0,0,0,1.961,1.5,5.72,5.72,0,0,0,2.411.519,5.194,5.194,0,0,0,2.636-.58,6.635,6.635,0,0,0,1.814-1.563l1.548-1.928-.132,2.469a17.539,17.539,0,0,1-1.29,6.537,3.988,3.988,0,0,1-3.715,2.466,3.4,3.4,0,0,1-2.407-.827,3.109,3.109,0,0,1-.885-1.6Zm6.927-7.39a3.79,3.79,0,0,1-3.2-1.658,6.606,6.606,0,0,1-1.122-4.018,8.916,8.916,0,0,1,.244-2.153,5.717,5.717,0,0,1,.78-1.819l0-.007a4.241,4.241,0,0,1,1.331-1.276,3.656,3.656,0,0,1,1.9-.482,3.982,3.982,0,0,1,3.429,1.725,6.933,6.933,0,0,1,1.137,4.091,6.328,6.328,0,0,1-1.2,3.967l0,0A4.017,4.017,0,0,1,1846.09,275.066Zm-1.98-8.761a4.164,4.164,0,0,0-.558,1.318,7.335,7.335,0,0,0-.2,1.767,5.077,5.077,0,0,0,.812,3.073l.012.017a2.176,2.176,0,0,0,1.91.994,2.463,2.463,0,0,0,2.042-1.013,4.792,4.792,0,0,0,.862-2.991,5.4,5.4,0,0,0-.843-3.169,2.408,2.408,0,0,0-2.131-1.055,2.1,2.1,0,0,0-1.083.258A2.661,2.661,0,0,0,1844.11,266.3Z" fill="#87bc57"/><path d="M1865.9,287.27v-5.7h-9.63v-4.44l9.03-15.95h5.45V277.6h2.8v3.97h-2.8v5.7Zm.11-18.85-5.07,9.19h5.07Z" fill="#87bc57"/><path d="M1871.546,288.066H1865.1v-5.7h-9.63V276.92l.1-.183,9.259-16.354h6.71V276.8h2.8v5.562h-2.8Zm-4.85-1.592h3.258v-5.7h2.8V278.4h-2.8v-16.42h-4.19l-8.7,15.364v3.434h9.63Zm.11-8.068h-7.215l7.215-13.077Zm-4.518-1.592h2.925v-5.3Z" fill="#87bc57"/><path d="M1885.26,277.18v-3.97h9.25v3.97Z" fill="#005a23"/><path d="M1895.306,277.976h-10.842v-5.562h10.842Zm-9.25-1.592h7.658v-2.378h-7.658Z" fill="#005a23"/><path d="M1906.23,287.27a19.022,19.022,0,0,1,.28-3.38,10.914,10.914,0,0,1,1.08-3.1,14.64,14.64,0,0,1,2.26-3.1,29.972,29.972,0,0,1,3.84-3.38,25.252,25.252,0,0,0,2.22-1.77,10.42,10.42,0,0,0,1.4-1.49,4.84,4.84,0,0,0,.75-1.41,5.008,5.008,0,0,0,.22-1.53,4.681,4.681,0,0,0-.26-1.65,2.578,2.578,0,0,0-.73-1.06,2.784,2.784,0,0,0-1.1-.55,5.786,5.786,0,0,0-1.34-.16,3.513,3.513,0,0,0-2.65,1c-.65.67-.97,1.88-.97,3.63h-4.66a9.621,9.621,0,0,1,2.11-6.62,7.562,7.562,0,0,1,5.95-2.38,11.811,11.811,0,0,1,3.41.47,7.316,7.316,0,0,1,2.65,1.41,6.351,6.351,0,0,1,1.72,2.38,8.5,8.5,0,0,1,.62,3.36,9.156,9.156,0,0,1-.37,2.71,8.471,8.471,0,0,1-1.21,2.4,14.6,14.6,0,0,1-2.22,2.4c-.92.81-2.04,1.72-3.36,2.71a12.828,12.828,0,0,0-2.39,2.38,4.4,4.4,0,0,0-1.04,2.3h10.67v4.44h-16.88Z" fill="#87bc57"/><path d="M1923.906,288.076h-18.472v-.806a19.9,19.9,0,0,1,.293-3.522,11.777,11.777,0,0,1,1.157-3.325l0-.005a15.472,15.472,0,0,1,2.381-3.271,30.542,30.542,0,0,1,3.94-3.471l.016-.012a24.58,24.58,0,0,0,2.149-1.712l.006-.005a9.651,9.651,0,0,0,1.293-1.373,4.075,4.075,0,0,0,.63-1.177,4.187,4.187,0,0,0,.182-1.288,3.923,3.923,0,0,0-.207-1.365,1.8,1.8,0,0,0-.5-.735,1.973,1.973,0,0,0-.781-.388,5,5,0,0,0-1.147-.136,2.739,2.739,0,0,0-2.079.758c-.34.35-.745,1.169-.745,3.076v.8h-6.252v-.8a10.44,10.44,0,0,1,2.31-7.148,8.356,8.356,0,0,1,6.546-2.648,12.637,12.637,0,0,1,3.64.5,8.1,8.1,0,0,1,2.936,1.566,7.137,7.137,0,0,1,1.937,2.674,9.319,9.319,0,0,1,.684,3.673,9.874,9.874,0,0,1-.405,2.945,9.308,9.308,0,0,1-1.321,2.626,15.324,15.324,0,0,1-2.34,2.534c-.985.867-2.13,1.791-3.408,2.75a12.086,12.086,0,0,0-2.239,2.23,5.649,5.649,0,0,0-.637,1.02h10.431Zm-16.866-1.592h15.274v-2.848H1911.6l.05-.843a5.165,5.165,0,0,1,1.2-2.737,13.681,13.681,0,0,1,2.537-2.528l.007-.006c1.246-.935,2.36-1.833,3.312-2.671a13.762,13.762,0,0,0,2.1-2.263,7.72,7.72,0,0,0,1.1-2.174,8.318,8.318,0,0,0,.335-2.475,7.749,7.749,0,0,0-.556-3.047,5.562,5.562,0,0,0-1.5-2.086,6.52,6.52,0,0,0-2.364-1.254,11.051,11.051,0,0,0-3.181-.436,6.747,6.747,0,0,0-5.356,2.114,8.313,8.313,0,0,0-1.888,5.294h3.071a5.168,5.168,0,0,1,1.172-3.388,4.3,4.3,0,0,1,3.221-1.242,6.592,6.592,0,0,1,1.524.182l.017,0a3.582,3.582,0,0,1,1.41.71,3.348,3.348,0,0,1,.961,1.383l0,.006a5.479,5.479,0,0,1,.311,1.931,5.829,5.829,0,0,1-.258,1.772,5.651,5.651,0,0,1-.87,1.643,11.209,11.209,0,0,1-1.5,1.6,26.129,26.129,0,0,1-2.28,1.819,28.99,28.99,0,0,0-3.729,3.281,13.9,13.9,0,0,0-2.14,2.929,10.185,10.185,0,0,0-1,2.872A17.331,17.331,0,0,0,1907.04,286.484Z" fill="#87bc57"/><path d="M1933.25,288.17a7.563,7.563,0,0,1-3.58-.83,7.02,7.02,0,0,1-2.65-2.53,13.2,13.2,0,0,1-1.64-4.36,31.35,31.35,0,0,1-.56-6.34,30.439,30.439,0,0,1,.56-6.26,12.715,12.715,0,0,1,1.64-4.28,6.824,6.824,0,0,1,2.65-2.46,8.552,8.552,0,0,1,7.18,0,6.934,6.934,0,0,1,2.69,2.44,12.89,12.89,0,0,1,1.7,4.24,28.073,28.073,0,0,1,.6,6.24q0,7.26-2.29,10.7A7.21,7.21,0,0,1,1933.25,288.17Zm.14-4.12a2.407,2.407,0,0,0,1.55-.53,3.83,3.83,0,0,0,1.08-1.69,13.389,13.389,0,0,0,.65-3.02,38.865,38.865,0,0,0,.22-4.54,42.254,42.254,0,0,0-.22-4.6,13.909,13.909,0,0,0-.65-3.04,3.921,3.921,0,0,0-1.08-1.69,2.407,2.407,0,0,0-1.55-.53,2.449,2.449,0,0,0-1.55.51,3.8,3.8,0,0,0-1.1,1.67,12.758,12.758,0,0,0-.67,3.02,39.25,39.25,0,0,0-.22,4.58,39.86,39.86,0,0,0,.22,4.6,13.028,13.028,0,0,0,.67,3.06,3.844,3.844,0,0,0,1.1,1.69A2.469,2.469,0,0,0,1933.39,284.05Z" fill="#87bc57"/><path d="M1933.25,288.966a8.361,8.361,0,0,1-3.952-.922,7.827,7.827,0,0,1-2.951-2.809,14.04,14.04,0,0,1-1.746-4.622,32.285,32.285,0,0,1-.577-6.5,31.394,31.394,0,0,1,.578-6.426,13.534,13.534,0,0,1,1.751-4.548,7.648,7.648,0,0,1,2.959-2.737,9.344,9.344,0,0,1,7.892,0,7.756,7.756,0,0,1,3,2.709l0,0a13.731,13.731,0,0,1,1.812,4.5,28.992,28.992,0,0,1,.62,6.419,31.432,31.432,0,0,1-.589,6.473,13.458,13.458,0,0,1-1.835,4.67A8.012,8.012,0,0,1,1933.25,288.966Zm0-27.85a7.146,7.146,0,0,0-3.224.706,6,6,0,0,0-2.338,2.181,11.974,11.974,0,0,0-1.529,4.012,29.832,29.832,0,0,0-.543,6.094,30.716,30.716,0,0,0,.543,6.177,12.482,12.482,0,0,0,1.534,4.1,6.259,6.259,0,0,0,2.349,2.251,6.79,6.79,0,0,0,3.208.738,6.421,6.421,0,0,0,5.64-3.089c1.429-2.138,2.154-5.59,2.154-10.255a27.426,27.426,0,0,0-.579-6.061,12.175,12.175,0,0,0-1.586-3.976,6.1,6.1,0,0,0-2.379-2.168l-.005,0A7.192,7.192,0,0,0,1933.25,261.116Zm.14,23.73a3.251,3.251,0,0,1-2.037-.676l-.007-.006a4.621,4.621,0,0,1-1.35-2.032,13.683,13.683,0,0,1-.716-3.249,40.351,40.351,0,0,1-.226-4.694,39.7,39.7,0,0,1,.226-4.676A13.4,13.4,0,0,1,1930,266.3a4.521,4.521,0,0,1,1.355-2.011,3.251,3.251,0,0,1,2.037-.676,3.206,3.206,0,0,1,2.046.7l.007.006a4.688,4.688,0,0,1,1.322,2.027l0,.009a14.731,14.731,0,0,1,.692,3.218v.006a43.188,43.188,0,0,1,.225,4.688,39.274,39.274,0,0,1-.226,4.636,14.07,14.07,0,0,1-.694,3.2,4.575,4.575,0,0,1-1.324,2.031l-.007.006A3.206,3.206,0,0,1,1933.39,284.846Zm-1.06-1.933a1.674,1.674,0,0,0,1.06.341,1.608,1.608,0,0,0,1.051-.354,3.107,3.107,0,0,0,.831-1.342l0-.009a12.561,12.561,0,0,0,.6-2.835,38.263,38.263,0,0,0,.214-4.444,41.627,41.627,0,0,0-.215-4.509,13.215,13.215,0,0,0-.606-2.855,3.232,3.232,0,0,0-.833-1.346,1.608,1.608,0,0,0-1.051-.354,1.651,1.651,0,0,0-1.063.344,3.085,3.085,0,0,0-.845,1.329,12.074,12.074,0,0,0-.621,2.827,47.252,47.252,0,0,0,0,8.99,12.36,12.36,0,0,0,.623,2.868A3.172,3.172,0,0,0,1932.33,282.913Z" fill="#87bc57"/><path d="M1943.36,287.27a19.022,19.022,0,0,1,.28-3.38,10.914,10.914,0,0,1,1.08-3.1,14.64,14.64,0,0,1,2.26-3.1,29.972,29.972,0,0,1,3.84-3.38,25.252,25.252,0,0,0,2.22-1.77,10.42,10.42,0,0,0,1.4-1.49,4.84,4.84,0,0,0,.75-1.41,5.008,5.008,0,0,0,.22-1.53,4.681,4.681,0,0,0-.26-1.65,2.578,2.578,0,0,0-.73-1.06,2.784,2.784,0,0,0-1.1-.55,5.786,5.786,0,0,0-1.34-.16,3.513,3.513,0,0,0-2.65,1c-.65.67-.97,1.88-.97,3.63h-4.66a9.621,9.621,0,0,1,2.11-6.62,7.562,7.562,0,0,1,5.95-2.38,11.811,11.811,0,0,1,3.41.47,7.316,7.316,0,0,1,2.65,1.41,6.351,6.351,0,0,1,1.72,2.38,8.5,8.5,0,0,1,.62,3.36,9.156,9.156,0,0,1-.37,2.71,8.471,8.471,0,0,1-1.21,2.4,14.6,14.6,0,0,1-2.22,2.4c-.92.81-2.04,1.72-3.36,2.71a12.828,12.828,0,0,0-2.39,2.38,4.4,4.4,0,0,0-1.04,2.3h10.67v4.44h-16.88Z" fill="#87bc57"/><path d="M1961.036,288.076h-18.472v-.806a19.9,19.9,0,0,1,.293-3.522,11.776,11.776,0,0,1,1.157-3.325l0-.005a15.472,15.472,0,0,1,2.381-3.271,30.542,30.542,0,0,1,3.94-3.471l.016-.012a24.58,24.58,0,0,0,2.149-1.712l.006-.005a9.648,9.648,0,0,0,1.293-1.373,4.075,4.075,0,0,0,.63-1.177,4.187,4.187,0,0,0,.182-1.288,3.92,3.92,0,0,0-.208-1.367,1.8,1.8,0,0,0-.5-.733,1.974,1.974,0,0,0-.781-.388,5,5,0,0,0-1.147-.136,2.739,2.739,0,0,0-2.079.758c-.34.35-.745,1.169-.745,3.076v.8H1942.9v-.8a10.44,10.44,0,0,1,2.31-7.148,8.356,8.356,0,0,1,6.546-2.648,12.637,12.637,0,0,1,3.64.5,8.1,8.1,0,0,1,2.936,1.566,7.137,7.137,0,0,1,1.937,2.674,9.319,9.319,0,0,1,.684,3.673,9.874,9.874,0,0,1-.405,2.945,9.308,9.308,0,0,1-1.321,2.626,15.322,15.322,0,0,1-2.34,2.534c-.985.867-2.13,1.791-3.408,2.75a12.086,12.086,0,0,0-2.239,2.23,5.649,5.649,0,0,0-.637,1.02h10.431Zm-16.866-1.592h15.274v-2.848h-10.718l.05-.843a5.165,5.165,0,0,1,1.2-2.737,13.684,13.684,0,0,1,2.537-2.528l.007-.006c1.246-.935,2.36-1.833,3.312-2.671a13.762,13.762,0,0,0,2.1-2.263,7.72,7.72,0,0,0,1.1-2.174,8.317,8.317,0,0,0,.335-2.475,7.749,7.749,0,0,0-.556-3.047,5.562,5.562,0,0,0-1.5-2.086,6.52,6.52,0,0,0-2.364-1.254,11.051,11.051,0,0,0-3.181-.436,6.747,6.747,0,0,0-5.356,2.114,8.313,8.313,0,0,0-1.888,5.294h3.071a5.168,5.168,0,0,1,1.172-3.388,4.3,4.3,0,0,1,3.221-1.242,6.592,6.592,0,0,1,1.524.182l.017,0a3.582,3.582,0,0,1,1.41.71,3.347,3.347,0,0,1,.961,1.383l0,.006a5.479,5.479,0,0,1,.311,1.931,5.828,5.828,0,0,1-.258,1.772,5.651,5.651,0,0,1-.87,1.643,11.216,11.216,0,0,1-1.5,1.6,26.15,26.15,0,0,1-2.28,1.819,28.99,28.99,0,0,0-3.729,3.281,13.9,13.9,0,0,0-2.14,2.929,10.185,10.185,0,0,0-1,2.872A17.331,17.331,0,0,0,1944.17,286.484Z" fill="#87bc57"/><path d="M1971.08,287.27v-5.7h-9.63v-4.44l9.03-15.95h5.45V277.6h2.8v3.97h-2.8v5.7Zm.11-18.85-5.07,9.19h5.07Z" fill="#87bc57"/><path d="M1976.726,288.066h-6.442v-5.7h-9.63V276.92l.1-.183,9.259-16.354h6.71V276.8h2.8v5.562h-2.8Zm-4.85-1.592h3.258v-5.7h2.8V278.4h-2.8v-16.42h-4.19l-8.7,15.364v3.434h9.63Zm.11-8.068h-7.215l7.215-13.077Zm-4.518-1.592h2.925v-5.3Z" fill="#87bc57"/><path d="M2.138,123.8l-4.276-4.276L119.522-2.138,123.8,2.138Z" transform="translate(1484.24 102.77)" fill="#1fa22e"/><path d="M2.138,66.818l-4.276-4.276,64.69-64.68,4.276,4.276Z" transform="translate(1759.97 348.57)" fill="#1fa22e"/><path d="M2.138,66.818l-4.276-4.276,64.68-64.68,4.276,4.276Z" transform="translate(1922.12 185.42)" fill="#1fa22e"/></g></svg>